<svg xmlns="http://www.w3.org/2000/svg" viewBox="0 0 2400 444">
  <path fill="#fff" d="M1265.4 332a222.1 222.1 0 0 1-193 110.5A207 207 0 0 1 962 411.9a220.2 220.2 0 0 1-78.9-82.7c-19.1-34.6-28.7-72.2-28.7-112.7s9.6-76.7 28.7-109.6a208.6 208.6 0 0 1 78.7-77.5c33.2-19 70-28.3 110.6-28.3s77.9 9.9 112 29.6a221.4 221.4 0 0 1 81 80c20 33.5 29.9 70.4 29.9 110.6s-10 76.7-29.9 110.6z" class="cls-27"/>
  <path fill="#ff9500" d="M1204.3 335.3a231.5 231.5 0 0 1-139.7 57.6 203.5 203.5 0 0 1-142.4-43.2c43 48 93.5 71.7 151.4 71.2a201 201 0 0 0 147.7-63.2c40.5-41.6 58.5-93.1 53.8-154.6a205.3 205.3 0 0 1-70.9 132.2h.1z"/>
  <path fill="#d80028" d="M1170.9 42.9a204.6 204.6 0 0 0-160.5-13.6c-55.2 17.4-95.5 55-120.7 112.5 29.5-45.1 70-74 121.5-86.4 51.6-12.4 102-8 151.2 13.6a208.3 208.3 0 0 1 108 103.7c-14.6-60-47.8-103.3-99.5-129.8z"/>
  <path fill="#002f81" d="M990.4 85.8a160.6 160.6 0 0 0-96.5 93.3c-18 44.8-14.2 93 11.8 145-12.1-45.8-8.5-88.7 10.9-128.5s49-69.4 88.8-89a187.6 187.6 0 0 1 126.9-14.4c-48.4-21.7-95.7-23.8-141.9-6.4zm677.3 228h45.3v-20h-45.3v-29.5h49.8v-21h-75.9v90.5c0 19.3 12.4 31.3 29.6 31.3h48.2v-21h-35c-10.7 0-16.7-4.1-16.7-15.3v-15zM2353.1 149h40v-20h-40V99.6h44.1V78.5h-70.1V169c0 19.3 12.4 31.4 29.6 31.4h42.3v-21.1h-29.2c-10.7 0-16.7-4-16.7-15.2V149zm-874.1 0h40v-20h-40V99.6h44.1V78.5H1453V169c0 19.3 12.4 31.4 29.6 31.4h42.3v-21.1h-29.2c-10.7 0-16.7-4-16.7-15.2V149zm-72.5 5c-11.6-26-21.4-51-34.3-75.5h-30.1v121.9h23.3v-79h.4c12.4 24.6 23.7 50.6 36 79h28.5v-122h-23.4V154h-.4zm680.5 0c-11.7-26-21.4-51-34.4-75.5h-30v121.9h23.3v-79h.3c12.4 24.6 23.8 50.6 36 79h28.5v-122h-23.4V154h-.3zm46.4-75.5v121.9h36.2c33.6 0 52.8-22 52.8-61s-19.2-61-52.8-61h-36.3.1zm26.4 100v-78h9.6c17.2 0 25.7 12.7 25.7 39s-8.5 38.9-25.7 38.9h-9.6zM1675.7 149h40v-20h-40V99.6h44V78.5h-70V169c0 19.3 12.3 31.4 29.5 31.4h42.3v-21.1h-29.2c-10.6 0-16.6-4-16.6-15.2V149zm628.7-45.7V80.8c-8.5-2.5-19.7-4.3-28.2-4.3-25.1 0-39.7 13-39.7 36 0 17.2 8.5 28 27.1 36 15 6.3 19.2 12.2 19.2 19.6s-5 12.4-15.3 12.4c-8 0-21.8-3.5-30.3-8h-.5v23.3a91 91 0 0 0 34 6.3c24 0 39.4-13.2 39.4-35.7 0-20.4-10.7-28.4-29-37-11-5.4-18-9.8-18-19 0-7.3 5.7-12.8 14.4-12.8 9.3 0 18.7 3 26.4 5.7h.5zM1892.3 365c3.6 1 12.8 2 20.6 2 22.9 0 36.2-11.8 36.2-34.3v-89.4h-27v86c0 10.3-6.1 15.3-16.8 15.3-4 0-9.9-.7-13-1.6v22zm-423-100.7c-21 0-28.1 16.5-28.1 39.7s7 39.7 28.1 39.7 27.8-15.8 27.8-39.7-7-39.7-27.8-39.7zm63.5-21v22.6h31.5V365h26.6v-99h31.5v-22.7h-89.7.1zm-63.5 123.5c-35.5 0-55.5-24.8-55.5-63s19.5-62.8 55.5-62.8 55.4 24.3 55.4 63-19.8 62.8-55.4 62.8zm363.3-1.8c-5.3-21.8-17.4-38-27-48.5a37.2 37.2 0 0 0 21.3-34.6c0-24.6-16-38.8-43.2-38.8h-43.8v122h26.6V325h14.5c9.8 7.6 18.8 22.5 24.1 40h27.5zm-31.5-80.2c0 13-7.6 20.4-21.3 20.4h-13.3v-41h13.3c13.7 0 21.3 7.5 21.3 20.6zm-459 48.3c0 19.7 12.5 32 30 32h33.7v-22h-20.3c-10.8 0-16.9-4.1-16.9-15.6V243h-26.5v90zm497.8-164.7c0 19.6 11.7 31.9 27.8 31.9h30.6v-22h-17c-9.2 0-14.9-4-14.9-15.6V78.4h-26.5v90zm98.3-13.3v20.5h49.8V155h-49.8zm21.8-56.7c9.5 30.3 14.5 63.8 20.9 101.9h27a786 786 0 0 0-28.3-122h-38.8a892 892 0 0 0-29 122h27a776 776 0 0 1 20.8-102h.4zm-134 101.9a102.8 102.8 0 0 0-25.8-48.6 36.4 36.4 0 0 0 20.7-34.5c0-24.6-14.9-38.8-40-38.8h-40.4v121.9h26.5v-40h12c7.9 7.5 15.3 22.4 19.8 40h27.2zm-31-80.3c0 12.6-6.5 20.4-17.7 20.4H1767v-41h10.3c11.2 0 17.7 8 17.7 20.6zm80.5 123h-26.6v122h26.6V243zM1544 78.5v121.9h36.2c33.6 0 52.7-22 52.7-61s-19-61-52.7-61H1544zm26.4 99.9v-78h9.6c17.2 0 25.7 12.8 25.7 39s-8.5 39-25.7 39h-9.6z" class="cls-254"/>
  <path fill="#ff5a00" d="M1223.1 257c-11.2-4.4-21-8.1-29.6-11.1a686.3 686.3 0 0 1-41.4-16.8c22.7-2 39.2-5.8 49.5-11.8 10.3-6 17-11.5 20.4-16.7 1.2-2 1.7-4.3 0-5.6a135.1 135.1 0 0 0-53.7-25c-21.2-5-41.4-5.6-60.4-2-4.9 1.2-9.5.4-14-2.4s-9.5-6.8-15.1-12l-5.9-5c-1.7-1.6-3-2.1-4.2-1.8-2.2 1.2-2.6 12.3-1.1 33.6a647.3 647.3 0 0 0-44.8 21.8 272.8 272.8 0 0 0-31 18.8c-1 .5-2 1.2-3.1 2a8.9 8.9 0 0 1-9.5 1 40.5 40.5 0 0 1-7.8-7.2c-3.4-3.7-6.7-7.7-10.1-11.8a148 148 0 0 0-11-12.8c-3.5-3.8-5.8-5.3-7-4.5-1 .7-1.4 2.7-1 5.9a60 60 0 0 0 2.2 10.9c4.1 13 6.2 24.2 6.2 33.5.3 6.7-.8 16.6-3.4 29.7a91.7 91.7 0 0 0-2 12c-.1 2.8.5 4.6 2 5.3 2.2 1.2 5-.2 8.4-4.2 3.4-4 8.4-10.5 15.1-19.8a44 44 0 0 1 9.5-13c1.5-.6 3.4-.6 5.6 0a4966 4966 0 0 0 49 17.4 1327 1327 0 0 0 43.3 14.6c2.6.7 3.8 1.9 3.4 3.4a42 42 0 0 1-4.8 8c-5.7 8-1.1 12.5 3 12.5 4.6 0 11-3.6 17.3-7.4 4.9-3 8.2-6.4 11.9-11h7.8c26.5-.6 47.8-2.4 63.8-5.2s30.2-9.2 42.5-19.3a3 3 0 0 0 1.4-2.4c0-.6-.3-1.1-1.4-1.5v-.1zm-74.4-57c0-3 1-5.4 3.1-7.3 2-1.8 4.4-2.8 7-2.8 3 0 5.4 1 7.3 2.8a9.9 9.9 0 0 1 2.8 7.3 10.1 10.1 0 0 1-10.1 10c-2.6 0-5-1-7-3s-3-4.4-3-7h-.1z"/>
  <g fill="#fff" class="cls-258" opacity=".5">
    <path d="M1072 153.7c0 .8 1 22.3 7.3 22.3 1 0 3.5-1.1 6.3-2.3 6-2.5 8.5-2.5 8.5-3.2 0-1-7.9-4.8-13-9.6a193 193 0 0 1-8-8c-.3-.3-1.2-.3-1.2.8h.1z" class="cls-5" opacity=".1"/>
    <path d="M1072 153.7c0 .8 1 22.2 7.3 22.2 1 0 3.5-1.1 6.3-2.3 5.9-2.5 8.5-2.5 8.5-3.1 0-1-7.9-5-13-9.7-2.7-2.4-7.6-7.4-8-7.8-.3-.4-1.1-.4-1.1.7z" class="cls-4" opacity=".1"/>
    <path d="M1072 153.7c0 .8 1 22.2 7.3 22.2 1 0 3.5-1.1 6.3-2.3 5.8-2.5 8.4-2.5 8.4-3.2 0-1-7.8-4.8-13-9.6a252 252 0 0 1-7.9-7.8c-.3-.4-1.1-.4-1.1.7z" class="cls-3" opacity=".1"/>
    <path d="M1072 153.7c0 .8 1 22 7.3 22 .9 0 3.4-1 6.3-2.2 5.8-2.4 8.4-2.4 8.4-3.1 0-1-7.8-4.8-13-9.6-2.6-2.4-7.5-7.4-7.9-7.8-.3-.4-1.1-.4-1.1.7z" class="cls-18" opacity=".1"/>
    <path d="M1072 153.7c0 .8 1 22 7.3 22 .9 0 3.4-1 6.2-2.2 5.8-2.5 8.4-2.5 8.4-3.1 0-1-7.8-4.8-13-9.6l-7.7-7.8c-.4-.3-1.2-.4-1.2.7z" class="cls-17" opacity=".1"/>
    <path d="M1072 153.7c0 .8 1 22 7.3 22 .9 0 3.4-1 6.2-2.3 5.8-2.4 8.4-2.4 8.4-3 0-1-7.8-4.8-13-9.6l-7.8-7.8c-.3-.3-1.1-.4-1.1.7z" class="cls-16" opacity=".1"/>
    <path d="M1072 153.7c0 .8 1 22 7.3 22 .9 0 3.4-1.1 6.2-2.3 5.8-2.4 8.3-2.4 8.3-3.1 0-1-7.7-4.8-12.8-9.5a183 183 0 0 1-7.8-7.8c-.4-.3-1.2-.4-1.2.7z" class="cls-15" opacity=".1"/>
    <path d="M1072 153.7c0 .8 1 22 7.2 22 1 0 3.4-1.2 6.2-2.3 5.8-2.5 8.4-2.5 8.4-3.1 0-1-7.8-4.8-12.9-9.5l-7.7-7.8c-.4-.3-1.2-.4-1.2.7z" class="cls-14" opacity=".1"/>
    <path d="M1072 153.7c0 .8 1 21.9 7.2 21.9 1 0 3.4-1.1 6.2-2.3 5.8-2.4 8.3-2.4 8.3-3 0-1-7.7-4.8-12.8-9.5l-7.7-7.8c-.3-.3-1.2-.4-1.2.7z" class="cls-8" opacity=".1"/>
    <path d="M1072 153.8c0 .7 1 21.7 7.2 21.7 1 0 3.4-1 6.2-2.2 5.7-2.4 8.3-2.4 8.3-3.1 0-1-7.7-4.8-12.8-9.4a256 256 0 0 1-7.7-7.8c-.4-.3-1.2-.4-1.2.8z" class="cls-7" opacity=".1"/>
    <path d="M1072 153.8c0 .7 1 21.7 7.2 21.7 1 0 3.4-1.1 6.2-2.3 5.6-2.4 8.2-2.4 8.2-3 0-1-7.7-4.8-12.7-9.4-2.6-2.4-7.4-7.4-7.8-7.8-.3-.3-1.1-.4-1.1.8z" class="cls-26" opacity=".1"/>
    <path d="M1072 153.8c0 .7 1 21.6 7.2 21.6 1 0 3.4-1 6.2-2.2 5.6-2.4 8.2-2.4 8.2-3 0-1-7.7-4.8-12.7-9.5a179 179 0 0 1-7.7-7.7c-.3-.3-1.2-.4-1.2.7z" class="cls-25" opacity=".1"/>
    <path d="M1072 153.8c0 .7 1 21.6 7.2 21.6.9 0 3.4-1 6.1-2.3 5.7-2.3 8.2-2.4 8.2-3 0-1-7.6-4.7-12.6-9.4a134 134 0 0 1-7.7-7.7c-.4-.3-1.2-.4-1.2.8z" class="cls-24" opacity=".1"/>
    <path d="M1072 153.8c0 .7 1 21.5 7.2 21.5.9 0 3.3-1 6-2.2 5.7-2.4 8.2-2.4 8.2-3 0-1-7.6-4.8-12.5-9.4-2.6-2.3-7.4-7.3-7.7-7.6-.3-.4-1.2-.4-1.2.7z" class="cls-23" opacity=".1"/>
    <path d="M1072 153.8c0 .7 1 21.5 7.2 21.5.9 0 3.3-1 6-2.3 5.6-2.3 8.2-2.3 8.2-3 0-1-7.6-4.7-12.6-9.3a162 162 0 0 1-7.6-7.7c-.4-.3-1.2-.4-1.2.8z" class="cls-22" opacity=".1"/>
    <path d="M1072 153.8c0 .7 1 21.4 7.2 21.5.9 0 3.3-1.1 6-2.3 5.6-2.3 8.1-2.4 8.1-3 0-1-7.5-4.7-12.5-9.3-2.5-2.3-7.3-7.2-7.6-7.6-.4-.4-1.2-.4-1.2.7z" class="cls-21" opacity=".1"/>
    <path d="M1072 153.8c0 .7 1 21.4 7.1 21.4 1 0 3.4-1 6.1-2.2 5.6-2.4 8-2.4 8-3 0-1-7.5-4.8-12.4-9.3l-7.6-7.6c-.3-.4-1.2-.4-1.2.7z" class="cls-20" opacity=".1"/>
    <path d="M1072 153.8c0 .7 1 21.3 7.1 21.4 1 0 3.4-1.1 6-2.3 5.6-2.3 8.1-2.3 8.1-3 0-1-7.5-4.7-12.4-9.2-2.5-2.3-7.3-7.2-7.6-7.6-.3-.4-1.2-.4-1.2.7z" class="cls-19" opacity=".1"/>
    <path d="M1072 153.8c0 .7 1 21.3 7.1 21.3 1 0 3.3-1 6-2.2 5.6-2.4 8-2.4 8-3 0-1-7.4-4.7-12.3-9.3-2.5-2.3-7.3-7.1-7.6-7.5-.4-.4-1.2-.4-1.2.7z" class="cls-13" opacity=".1"/>
    <path d="M1072 153.8c0 .7 1 21.3 7.1 21.3 1 0 3.3-1.1 6-2.3 5.5-2.3 8-2.3 8-3 0-.8-7.5-4.6-12.4-9.2l-7.5-7.5c-.3-.3-1.2-.4-1.2.7z" class="cls-12" opacity=".1"/>
    <path d="M1072 153.8c0 .7 1 21.2 7.1 21.2.9 0 3.3-1 6-2.2 5.5-2.3 8-2.3 8-3 0-1-7.5-4.7-12.4-9.2-2.5-2.3-7.2-7.1-7.5-7.5-.3-.3-1.2-.4-1.2.7z" class="cls-35" opacity=".1"/>
    <path d="M1072 153.8c0 .7 1 21.2 7 21.2 1 0 3.4-1.1 6-2.3 5.5-2.3 8-2.3 8-3 0-.8-7.4-4.6-12.3-9l-7.5-7.6c-.3-.3-1.2-.4-1.2.7z" class="cls-33" opacity=".1"/>
    <path d="M1072.1 153.8c0 .7 1 21 7 21 .9 0 3.3-1 6-2.1 5.4-2.3 7.9-2.3 7.9-3 0-.8-7.5-4.6-12.3-9.1-2.5-2.3-7.2-7.1-7.5-7.5-.3-.4-1.1-.4-1.1.7z" class="cls-36" opacity=".1"/>
    <path d="M1072.1 153.8c0 .7 1 21 7 21 .9 0 3.2-1 5.9-2.2 5.4-2.2 7.9-2.3 7.9-3 0-.8-7.4-4.6-12.2-9-2.5-2.3-7.2-7.1-7.5-7.5-.3-.3-1.1-.4-1.1.7z" class="cls-34" opacity=".1"/>
    <path d="M1072.1 153.8c0 .7 1 21 7 21 .9 0 3.2-1 5.9-2.2 5.4-2.3 7.9-2.3 7.9-3 0-.8-7.4-4.6-12.2-9-2.5-2.3-7.1-7-7.5-7.5-.3-.3-1.1-.4-1.1.7z" class="cls-30" opacity=".1"/>
    <path d="M1072.1 153.8c0 .7 1 21 7 21 .8 0 3.2-1 5.9-2.2 5.3-2.3 7.8-2.3 7.8-3 0-.8-7.4-4.6-12.1-9-2.5-2.3-7.1-7-7.5-7.5-.3-.3-1.1-.4-1.1.7z" class="cls-29" opacity=".1"/>
    <path d="M1072.1 153.8c0 .7 1 21 7 21a27 27 0 0 0 5.8-2.3c5.4-2.2 7.9-2.3 7.9-3 0-.8-7.4-4.5-12.1-9-2.5-2.2-7.1-7-7.5-7.4-.3-.3-1.1-.4-1.1.7z" class="cls-32" opacity=".1"/>
    <path d="M1072.1 153.8c0 .7 1 20.9 7 20.9.8 0 3.2-1 5.8-2.2 5.3-2.3 7.8-2.3 7.8-3 0-.8-7.3-4.6-12-9-2.5-2.2-7.2-7-7.5-7.4-.3-.3-1.1-.4-1.1.7z" class="cls-31" opacity=".2"/>
    <path d="M1072.1 153.8c0 .7 1 20.8 7 20.8.8 0 3.1-1 5.8-2.2 5.3-2.2 7.7-2.2 7.7-3 0-.8-7.3-4.5-12-9-2.4-2.1-7-7-7.4-7.3-.3-.3-1.1-.4-1.1.7z" class="cls-59" opacity=".2"/>
    <path d="M1072.1 153.8c0 .7 1 20.8 7 20.8.8 0 3.1-1 5.7-2.2 5.3-2.3 7.8-2.3 7.8-3 0-.8-7.3-4.5-12-9-2.4-2.1-7-7-7.4-7.3-.3-.3-1.1-.4-1.1.7z" class="cls-58" opacity=".2"/>
    <path d="M1072.1 153.8c0 .7 1 20.7 6.9 20.7.9 0 3.2-1 5.8-2.2 5.3-2.2 7.7-2.2 7.7-3 0-.7-7.2-4.4-12-8.8l-7.3-7.4c-.3-.3-1.1-.3-1.1.7z" class="cls-28" opacity=".2"/>
    <path d="M1072.1 153.8c0 .7 1 20.7 6.9 20.7.9 0 3.2-1 5.8-2.2 5.2-2.2 7.7-2.2 7.7-3 0-.8-7.2-4.5-12-8.8l-7.3-7.4c-.3-.3-1.1-.3-1.1.7z" class="cls-60" opacity=".2"/>
    <path d="M1072.1 153.8c0 .7 1 20.7 6.9 20.6.9 0 3.1-1 5.8-2.1 5.2-2.3 7.6-2.3 7.6-3 0-.8-7.2-4.5-11.8-8.8-2.4-2.2-7-7-7.4-7.4-.3-.3-1.1-.3-1.1.7z" class="cls-50" opacity=".2"/>
    <path d="M1072.1 153.8c0 .7 1 20.6 6.9 20.6.8 0 3.1-1 5.7-2.2 5.2-2.2 7.6-2.2 7.7-3 0-.7-7.2-4.4-11.8-8.7-2.5-2.3-7-7-7.4-7.4-.3-.3-1.1-.3-1.1.7z" class="cls-49" opacity=".2"/>
    <path d="M1072.1 153.8c0 .7 1 20.6 6.9 20.6.8 0 3.1-1.1 5.7-2.2 5.2-2.2 7.6-2.2 7.6-3 0-.8-7.2-4.4-11.8-8.7-2.4-2.2-7-7-7.3-7.3-.3-.4-1-.4-1 .6h-.1z" class="cls-52" opacity=".2"/>
    <path d="M1072.1 153.8c0 .7 1 20.5 6.8 20.5 1 0 3.2-1 5.8-2.2 5.1-2.2 7.5-2.2 7.5-2.8 0-1-7-4.6-11.7-8.8l-7.3-7.3c-.3-.4-1.1-.4-1.1.6z" class="cls-51" opacity=".2"/>
    <path d="M1072.1 153.8c0 .7 1 20.5 6.8 20.5 1 0 3.2-1.1 5.7-2.2 5.2-2.2 7.6-2.2 7.6-3 0-.7-7.1-4.4-11.7-8.6l-7.3-7.3c-.3-.3-1-.4-1 .6h-.1z" class="cls-46" opacity=".2"/>
    <path d="M1072.1 153.8c0 .7 1 20.4 6.8 20.4.9 0 3.1-1 5.7-2.1 5.1-2.2 7.5-2.3 7.5-3 0-.8-7-4.4-11.6-8.7-2.4-2.2-7-6.8-7.3-7.2-.3-.4-1-.4-1 .6h-.1z" class="cls-45" opacity=".2"/>
    <path d="M1072.1 153.8c0 .7 1 20.4 6.8 20.4.9 0 3.1-1 5.7-2.2 5-2.2 7.5-2.2 7.5-2.8 0-1-7-4.6-11.6-8.8-2.4-2.2-7-6.8-7.3-7.2-.3-.3-1-.4-1 .6h-.1z" class="cls-48" opacity=".2"/>
    <path d="M1072.1 153.8c0 .7 1 20.3 6.8 20.3.9 0 3.1-1 5.7-2.1 5-2.2 7.4-2.2 7.4-3 0-.7-7-4.4-11.5-8.6-2.4-2.2-7-6.8-7.3-7.2-.3-.3-1-.4-1 .7l-.1-.1z" class="cls-47" opacity=".2"/>
    <path d="M1072.1 153.8c0 .7 1 20.3 6.8 20.3.9 0 3-1 5.6-2.2 5.1-2.2 7.5-2.2 7.5-2.8 0-1-7-4.5-11.6-8.7l-7.2-7.2c-.3-.3-1-.4-1 .6h-.1z" class="cls-42" opacity=".2"/>
    <path d="M1072.1 153.8c0 .7 1 20.2 6.8 20.2.9 0 3-1 5.6-2.1 5-2.2 7.4-2.2 7.4-2.8 0-1-7-4.5-11.5-8.7l-7.2-7.2c-.3-.3-1-.4-1 .7l-.1-.1z" class="cls-41" opacity=".2"/>
    <path d="M1072.1 153.8c0 .7 1.1 20.2 6.8 20.2.8 0 3-1 5.6-2.2 5-2.1 7.4-2.2 7.4-2.8 0-.8-7-4.5-11.5-8.6l-7.2-7.2c-.3-.3-1-.4-1 .7l-.1-.1z" class="cls-44" opacity=".2"/>
    <path d="M1072.1 153.8c0 .7 1.1 20 6.8 20 .8 0 3-1 5.5-2 5-2.2 7.4-2.2 7.4-2.8 0-1-7-4.5-11.4-8.6-2.4-2.2-6.8-6.8-7.2-7.2-.3-.3-1-.4-1 .6h-.1z" class="cls-43" opacity=".2"/>
    <path d="M1072.1 153.9c0 .6 1.1 20 6.8 20 .8 0 3-1 5.5-2.1 5-2.2 7.4-2.2 7.4-3 0-.7-7-4.3-11.4-8.4-2.4-2.2-6.8-6.8-7.2-7.2-.3-.3-1-.4-1 .7h-.1z" class="cls-38" opacity=".2"/>
    <path d="M1072.1 153.9c0 .6 1.1 20 6.7 20 .9 0 3-1.1 5.6-2.2 5-2.1 7.3-2.2 7.3-2.8 0-1-7-4.5-11.3-8.6-2.4-2.1-6.8-6.7-7.2-7.1-.3-.3-1-.4-1 .7h-.1z" class="cls-37" opacity=".2"/>
    <path d="M1072.1 153.9c0 .6 1.1 19.9 6.7 19.9.9 0 3-1 5.5-2.1 5-2.2 7.3-2.2 7.3-2.8 0-1-6.9-4.5-11.3-8.6-2.3-2.1-6.7-6.6-7.1-7-.3-.4-1-.5-1 .6h-.1z" class="cls-40" opacity=".2"/>
    <path d="M1072.2 153.9c0 .6 1 19.9 6.6 19.8.9 0 3-1 5.5-2 5-2.2 7.3-2.2 7.3-3 0-.7-6.9-4.3-11.3-8.4a239 239 0 0 1-7.1-7c-.3-.4-1-.4-1 .6z" class="cls-39" opacity=".2"/>
    <path d="M1072.2 153.9c0 .6 1 19.8 6.6 19.8.9 0 3-1 5.5-2.1 5-2.2 7.2-2.2 7.3-2.8 0-1-6.9-4.5-11.3-8.5-2.3-2.1-6.7-6.7-7-7-.4-.4-1.1-.5-1.1.6z" class="cls-189" opacity=".2"/>
    <path d="M1072.2 153.9c0 .6 1 19.8 6.6 19.7.9 0 3-1 5.5-2 4.9-2.2 7.2-2.2 7.2-2.8 0-1-6.8-4.5-11.2-8.5l-7-7c-.4-.4-1.1-.4-1.1.6z" class="cls-188" opacity=".2"/>
    <path d="M1072.2 153.9c0 .6 1 19.7 6.6 19.7.8 0 3-1 5.5-2.1 4.8-2.1 7.1-2.1 7.1-2.8 0-.8-6.8-4.4-11.1-8.4l-7-7c-.4-.4-1.1-.4-1.1.6z" class="cls-191" opacity=".3"/>
    <path d="M1072.2 153.9c0 .6 1 19.7 6.6 19.6.8 0 3-1 5.4-2 4.9-2.1 7.2-2.2 7.2-2.8 0-.8-6.8-4.4-11.1-8.4a148 148 0 0 1-7-7c-.4-.4-1.1-.4-1.1.6z" class="cls-190" opacity=".3"/>
    <path d="M1072.2 153.9c0 .6 1 19.6 6.6 19.6.8 0 3-1 5.4-2.1 4.8-2.1 7.1-2.1 7.1-2.8 0-.8-6.7-4.4-11-8.3l-7-7c-.4-.4-1.1-.4-1.1.6z" class="cls-183" opacity=".3"/>
    <path d="M1072.2 153.9c0 .6 1 19.6 6.6 19.6.8 0 3-1 5.4-2.1 4.8-2.1 7-2.2 7-2.8 0-.8-6.7-4.4-11-8.4-2.2-2-6.6-6.5-7-7-.3-.2-1-.3-1 .7z" class="cls-182" opacity=".3"/>
    <path d="M1072.2 153.9c0 .6 1 19.5 6.6 19.5.8 0 2.9-1 5.3-2 4.8-2.2 7.1-2.2 7.1-2.8 0-1-6.7-4.4-11-8.4-2.3-2-6.6-6.5-7-7-.3-.3-1-.3-1 .7z" class="cls-181" opacity=".3"/>
    <path d="M1072.2 153.9c0 .6 1 19.5 6.5 19.5.9 0 3-1 5.4-2.1 4.8-2.1 7-2.1 7-2.8 0-.8-6.7-4.3-10.9-8.3-2.3-2-6.6-6.5-7-7-.3-.2-1-.3-1 .7z" class="cls-180" opacity=".3"/>
    <path d="M1072.2 153.9c0 .6 1 19.4 6.5 19.4.9 0 3-1 5.4-2 4.7-2.1 7-2.2 7-2.8 0-.8-6.7-4.4-10.9-8.3-2.3-2-6.6-6.5-7-7-.3-.2-1-.3-1 .7z" class="cls-187" opacity=".3"/>
    <path d="M1072.2 153.9c0 .6 1 19.4 6.5 19.4.8 0 3-1 5.3-2.1 4.8-2 7-2.1 7-2.7 0-1-6.6-4.4-10.8-8.3-2.3-2-6.6-6.5-7-7-.3-.2-1-.3-1 .7z" class="cls-186" opacity=".3"/>
    <path d="M1072.3 153.9c0 .6 1 19.4 6.4 19.3.8 0 3-1 5.3-2 4.7-2.1 7-2.1 7-2.8 0-.8-6.6-4.3-10.8-8.2a213 213 0 0 1-7-7c-.2-.2-1-.3-1 .7h.1z" class="cls-185" opacity=".3"/>
    <path d="M1072.3 154c0 .5 1 19.2 6.4 19.2.8 0 2.9-1 5.3-2 4.7-2.1 7-2.2 7-2.8 0-.8-6.7-4.3-10.8-8.2a226 226 0 0 1-7-7c-.3-.2-1-.3-1 .7h.1z" class="cls-184" opacity=".3"/>
    <path d="M1072.3 154c0 .5 1 19.2 6.4 19 .8 0 2.9-1 5.3-2 4.6-2 6.9-2 6.9-2.6 0-1-6.6-4.4-10.8-8.2l-6.9-7c-.3-.2-1-.3-1 .7h.1z" class="cls-175" opacity=".3"/>
    <path d="M1072.3 154c0 .5 1 19 6.4 19 .8 0 2.9-1 5.2-2 4.7-2 7-2 7-2.7 0-.8-6.6-4.3-10.8-8.1a210 210 0 0 1-6.9-7c-.2-.2-1-.3-1 .7h.1z" class="cls-174" opacity=".3"/>
    <path d="M1072.3 154c0 .5 1 19 6.4 19 .8 0 2.8-1 5.2-2 4.6-2 6.9-2 6.9-2.7 0-.8-6.6-4.3-10.7-8.2-2.2-2-6.5-6.4-6.9-6.8-.3-.3-1-.4-1 .6h.1z" class="cls-173" opacity=".3"/>
    <path d="M1072.3 154c0 .5 1 19 6.4 19 .8 0 2.8-1 5.2-2 4.6-2.1 6.8-2.1 6.9-2.8 0-.8-6.6-4.3-10.7-8l-6.9-7c-.2-.2-1-.3-1 .7h.1z" class="cls-172" opacity=".3"/>
    <path d="M1072.3 154c0 .5 1 19 6.4 19 .8 0 2.8-1 5.2-2.1 4.5-2 6.8-2 6.8-2.7 0-.8-6.5-4.3-10.6-8l-6.9-7c-.2-.2-1-.3-1 .7h.1z" class="cls-178" opacity=".3"/>
    <path d="M1072.3 154c0 .5 1 19 6.4 18.9.8 0 2.8-1 5.1-2 4.6-2 6.8-2.1 6.8-2.7 0-1-6.5-4.3-10.5-8.1a245 245 0 0 1-6.9-6.8c-.2-.3-1-.3-1 .6h.1z" class="cls-179" opacity=".3"/>
    <path d="M1072.3 154c0 .6 1 18.9 6.3 18.8.8 0 2.9-1 5.2-2 4.5-2 6.8-2 6.8-2.6 0-1-6.5-4.3-10.6-8l-6.8-7c-.2-.2-1-.2-1 .7h.1z" class="cls-176" opacity=".3"/>
    <path d="M1072.3 154c0 .6 1 18.8 6.3 18.8.8 0 2.8-1 5.2-2 4.5-2 6.7-2 6.7-2.7 0-.8-6.4-4.3-10.5-8a128 128 0 0 1-6.7-6.8c-.3-.3-1-.3-1 .6z" class="cls-177" opacity=".3"/>
    <path d="M1072.3 154c0 .6 1 18.8 6.3 18.7.8 0 2.8-1 5.1-2 4.5-2 6.8-2 6.8-2.6 0-1-6.5-4.3-10.5-8-2.2-2-6.3-6.3-6.8-6.8-.2-.3-1-.3-1 .6h.1z" class="cls-56" opacity=".3"/>
    <path d="M1072.3 154c0 .5 1 18.7 6.3 18.7.8 0 2.8-1 5.1-2 4.5-2 6.7-2 6.7-2.7 0-.8-6.4-4.2-10.4-8-2.2-2-6.3-6.2-6.8-6.7-.2-.3-1-.3-1 .6h.1z" class="cls-55" opacity=".3"/>
    <path d="M1072.3 154c0 .5 1 18.7 6.3 18.6.8 0 2.8-1 5-2 4.5-2 6.7-2 6.7-2.6 0-.8-6.3-4.3-10.3-8-2.2-2-6.4-6.2-6.8-6.7-.2-.3-1-.3-1 .6h.1z" class="cls-54" opacity=".3"/>
    <path d="M1072.3 154c0 .5 1 18.6 6.3 18.6.8 0 2.8-1 5-2 4.5-2 6.7-2 6.7-2.6 0-1-6.4-4.3-10.3-8-2.2-2-6.3-6.2-6.8-6.7-.2-.3-1-.3-1 .6h.1z" class="cls-53" opacity=".3"/>
    <path d="M1072.3 154c0 .6 1 18.6 6.3 18.6.8 0 2.7-1 5-2 4.5-2 6.6-2 6.6-2.7 0-.8-6.3-4.2-10.3-8l-6.7-6.6c-.2-.3-1-.3-1 .6h.1z" class="cls-217" opacity=".3"/>
    <path d="M1072.3 154c0 .6 1 18.5 6.3 18.5.8 0 2.7-1 5-2 4.4-2 6.6-2 6.6-2.6 0-.8-6.3-4.2-10.3-8l-6.7-6.6c-.2-.2-1-.3-1 .6h.1z" class="cls-57" opacity=".3"/>
    <path d="M1072.3 154c0 .6 1 18.5 6.3 18.5.8 0 2.7-1 5-2 4.4-2 6.6-2 6.6-2.7 0-.8-6.4-4.2-10.3-7.8a219 219 0 0 1-6.7-6.7c-.2-.2-1-.3-1 .6h.1z" class="cls-171" opacity=".3"/>
    <path d="M1072.3 154c0 .6 1 18.5 6.2 18.4.8 0 2.8-1 5-2 4.4-2 6.6-2 6.6-2.6 0-.8-6.3-4.2-10.2-7.8l-6.7-6.6c-.2-.3-1-.4-1 .6h.1z" class="cls-219" opacity=".3"/>
    <path d="M1072.3 154c0 .6 1 18.4 6.2 18.4.8 0 2.7-1 5-2 4.4-2 6.5-2 6.5-2.6 0-.8-6.2-4.2-10.1-7.8l-6.6-6.6c-.3-.3-1-.4-1 .6z" class="cls-218" opacity=".3"/>
    <path d="M1072.3 154c0 .6 1 18.4 6.2 18.3.8 0 2.7-1 5-2 4.3-2 6.5-2 6.5-2.6 0-.8-6.2-4.1-10.1-7.7-2.2-2-6.2-6.2-6.6-6.6-.3-.3-1-.4-1 .6z" class="cls-216" opacity=".3"/>
    <path d="M1072.3 154c0 .6 1.1 18.3 6.2 18.3.8 0 2.7-1 5-2 4.3-2 6.4-2 6.4-2.6 0-.8-6.2-4.2-10-7.7-2.2-2-6.2-6.2-6.6-6.6-.3-.3-1-.4-1 .6z" class="cls-220" opacity=".4"/>
    <path d="M1072.3 154c0 .6 1.1 18.3 6.2 18.2.8 0 2.7-1 5-2 4.2-2 6.4-2 6.4-2.5 0-.8-6.2-4.2-10-7.8-2.2-2-6.2-6-6.6-6.5-.3-.3-1-.4-1 .6z" class="cls-222" opacity=".4"/>
    <path d="M1072.3 154c0 .6 1.1 18.2 6.2 18.2.8 0 2.7-1 5-2 4.2-2 6.3-2 6.3-2.6 0-.8-6.1-4.1-10-7.7l-6.5-6.5c-.3-.3-1-.4-1 .6z" class="cls-207" opacity=".4"/>
    <path d="M1072.3 154c0 .6 1.1 18.2 6.2 18 .8 0 2.6-1 4.9-2 4.2-1.7 6.4-1.8 6.4-2.4 0-.8-6.2-4.1-10-7.7l-6.5-6.5c-.3-.3-1-.3-1 .6z" class="cls-221" opacity=".4"/>
    <path d="M1072.3 154c0 .6 1.1 18 6.2 18 .8 0 2.6-1 4.9-2 4.2-1.8 6.3-2 6.3-2.4 0-.8-6.1-4.2-9.9-7.7l-6.5-6.5c-.3-.3-1-.3-1 .6z" class="cls-223" opacity=".4"/>
    <path d="M1072.3 154c0 .6 1.1 18 6.2 18 .7 0 2.6-1 4.8-2 4.2-1.8 6.3-1.8 6.4-2.5 0-.8-6.1-4.1-10-7.6l-6.4-6.5c-.3-.3-1-.3-1 .6z" class="cls-210" opacity=".4"/>
    <path d="M1072.3 154c0 .6 1.1 18 6.1 18 .8 0 2.7-1 4.9-2 4.2-2 6.3-2 6.3-2.5 0-.8-6-4.1-9.8-7.6l-6.5-6.5c-.3-.3-1-.3-1 .6z" class="cls-209" opacity=".4"/>
    <path d="M1072.3 154c0 .6 1.1 18 6.1 18 .8 0 2.7-1 4.9-2 4.1-2 6.2-2 6.2-2.5 0-.8-6-4.2-9.8-7.6l-6.4-6.5c-.3-.3-1-.3-1 .6z" class="cls-208" opacity=".4"/>
    <path d="M1072.3 154c0 .6 1.1 18 6.1 17.9.8 0 2.6-1 4.8-2 4.2-1.8 6.3-2 6.3-2.5 0-.8-6-4.1-9.8-7.5l-6.4-6.5c-.3-.3-1-.3-1 .6z" class="cls-211" opacity=".4"/>
    <path d="M1072.3 154c0 .6 1.2 17.9 6.1 17.8.8 0 2.6-1 4.8-2 4.1-1.8 6.2-1.8 6.2-2.4 0-.8-6-4.1-9.7-7.6l-6.4-6.4c-.3-.3-1-.3-1 .6z" class="cls-215" opacity=".4"/>
    <path d="M1072.3 154c0 .6 1.2 17.9 6.1 17.8.8 0 2.6-1 4.8-2 4-1.8 6.2-1.8 6.2-2.5s-6-4-9.7-7.5l-6.4-6.4c-.3-.2-1-.3-1 .6z" class="cls-214" opacity=".4"/>
    <path d="M1072.3 154c0 .6 1.2 17.8 6.1 17.8.8 0 2.6-1 4.8-2 4-1.8 6.1-2 6.1-2.5 0-.8-6-4-9.6-7.5l-6.4-6.4c-.3-.2-1-.3-1 .6z" class="cls-213" opacity=".4"/>
    <path d="M1072.3 154c0 .6 1.2 17.8 6 17.7.9 0 2.7-1 4.8-2 4-1.8 6.2-1.8 6.2-2.4 0-.8-6-4.1-9.6-7.5l-6.4-6.4c-.3-.2-1-.3-1 .6z" class="cls-212" opacity=".4"/>
    <path d="M1072.3 154c0 .6 1.2 17.7 6 17.7.8 0 2.6-1 4.8-2 4-1.8 6.1-1.8 6.1-2.4 0-.8-5.9-4.1-9.5-7.5l-6.4-6.4c-.3-.2-1-.3-1 .6z" class="cls-202" opacity=".4"/>
    <path d="M1072.3 154c0 .6 1.2 17.7 6 17.6.8 0 2.6-1 4.8-2 4-1.7 6-1.8 6-2.4 0-.8-5.8-4-9.5-7.4l-6.3-6.4c-.3-.2-1-.3-1 .6z" class="cls-201" opacity=".4"/>
    <path d="M1072.3 154c0 .6 1.2 17.6 6 17.6.8 0 2.6-1 4.7-2 4-1.8 6.1-1.8 6.1-2.4 0-.8-5.9-4.1-9.5-7.4l-6.3-6.4c-.3-.2-1-.3-1 .6z" class="cls-200" opacity=".4"/>
    <path d="M1072.3 154c0 .6 1.2 17.6 6 17.5.8 0 2.6-1 4.7-2 4-1.7 6-1.7 6-2.4s-5.8-4-9.4-7.3l-6.3-6.4c-.3-.2-1-.3-1 .6z" class="cls-203" opacity=".4"/>
    <path d="M1072.3 154c0 .6 1.2 17.5 6 17.5.8 0 2.6-1 4.7-2 4-1.8 6-1.8 6-2.4 0-.8-5.8-4-9.4-7.3l-6.3-6.4c-.3-.2-1-.3-1 .6z" class="cls-206" opacity=".4"/>
    <path d="M1072.3 154c0 .6 1.2 17.5 6 17.4.8 0 2.5-1 4.7-2 4-1.7 6-1.7 6-2.3 0-.8-5.9-4-9.4-7.3l-6.3-6.3c-.3-.3-1-.3-1 .5z" class="cls-194" opacity=".4"/>
    <path d="M1072.3 154c0 .6 1.2 17.4 6 17.4.8 0 2.5-1 4.6-2 4-1.7 6-1.8 6-2.4 0-.7-5.8-4-9.3-7.3a129 129 0 0 1-6.3-6.2c-.3-.3-1-.3-1 .5z" class="cls-205" opacity=".4"/>
    <path d="M1072.3 154c0 .6 1.2 17.4 6 17.3.8 0 2.5-1 4.6-2 4-1.6 6-1.7 6-2.3 0-.8-5.8-4-9.3-7.3-2-1.8-5.8-5.7-6.3-6.2-.2-.3-.9-.3-.9.5h-.1z" class="cls-204" opacity=".4"/>
    <path d="M1072.3 154c0 .6 1.2 17.3 6 17.3.8 0 2.5-1 4.6-2 3.9-1.7 5.9-1.7 5.9-2.3 0-.8-5.8-4-9.3-7.3-2-1.8-5.8-5.7-6.2-6.2-.3-.3-1-.3-1 .5z" class="cls-196" opacity=".4"/>
    <path d="M1072.4 154c0 .6 1.1 17.3 5.9 17.2.8 0 2.5-1 4.6-2 3.8-1.6 5.9-1.7 5.9-2.3 0-.8-5.8-4-9.3-7.2-2-1.8-5.7-5.7-6.2-6.2-.2-.3-.9-.3-.9.5z" class="cls-195" opacity=".5"/>
    <path d="M1072.4 154c0 .6 1.1 17.2 5.9 17.2.7 0 2.4-1 4.5-2 3.9-1.6 5.9-1.7 5.9-2.3 0-.8-5.7-4-9.2-7.2-2-1.8-5.7-5.7-6.2-6.2-.2-.3-.9-.3-.9.5z" class="cls-193" opacity=".5"/>
    <path d="M1072.4 154c0 .6 1.1 17.2 5.9 17 .7 0 2.4-1 4.5-1.8 3.8-1.7 5.8-1.7 5.8-2.4s-5.7-4-9.1-7.1l-6.2-6.2c-.3-.3-.9-.3-.9.5z" class="cls-192" opacity=".5"/>
    <path d="M1072.4 154c0 .6 1.1 17 5.9 17 .7 0 2.4-1 4.5-1.8 3.8-1.7 5.8-1.8 5.8-2.4 0-.8-5.7-4-9.1-7.1a177 177 0 0 1-6.2-6.2c-.3-.3-.9-.3-.9.6v-.1z" class="cls-198" opacity=".5"/>
    <path d="M1072.4 154c0 .6 1.1 17 5.8 17 .8 0 2.5-1 4.5-1.8 3.8-1.8 5.8-1.8 5.8-2.4 0-.8-5.6-4-9-7.1l-6.2-6.2c-.3-.3-.9-.3-.9.6v-.1z" class="cls-102" opacity=".5"/>
    <path d="M1072.4 154c0 .6 1.2 17 5.8 17 .8 0 2.5-1 4.5-2 3.8-1.6 5.8-1.7 5.8-2.3 0-.7-5.7-4-9-7l-6.2-6.2c-.3-.3-.9-.3-.9.6v-.1z" class="cls-197" opacity=".5"/>
    <path d="M1072.4 154c0 .6 1.2 17 5.8 17 .8 0 2.4-1 4.5-2 3.7-1.6 5.7-1.7 5.7-2.3 0-.8-5.6-4-9-7l-6.1-6.2c-.2-.3-.9-.3-.9.5z" class="cls-199" opacity=".5"/>
    <path d="M1072.4 154c0 .6 1.2 17 5.8 16.9.8 0 2.4-1 4.4-2 3.8-1.6 5.8-1.6 5.8-2.2 0-.8-5.6-4-9-7a173 173 0 0 1-6.1-6.2c-.2-.2-.9-.3-.9.6v-.1z" class="cls-103" opacity=".5"/>
    <path d="M1072.4 154c0 .6 1.2 17 5.8 16.9.7 0 2.4-1 4.4-2 3.7-1.6 5.7-1.7 5.7-2.3 0-.7-5.6-4-8.9-7-2-1.8-5.6-5.6-6.1-6-.2-.3-.9-.4-.9.5v-.1z" class="cls-106" opacity=".5"/>
    <path d="M1072.4 154c0 .6 1.2 16.9 5.8 16.8.7 0 2.4-1 4.4-2 3.7-1.5 5.6-1.6 5.7-2.2 0-.8-5.6-4-9-7l-6-6c-.2-.3-.9-.4-.9.5v-.1z" class="cls-101" opacity=".5"/>
    <path d="M1072.4 154c0 .6 1.2 16.8 5.8 16.8.7 0 2.4-1 4.4-2 3.6-1.6 5.6-1.6 5.6-2.2 0-.8-5.5-4-8.8-7-2-1.8-5.6-5.6-6-6-.3-.3-1-.4-1 .5v-.1z" class="cls-104" opacity=".5"/>
    <path d="M1072.4 154c0 .6 1.2 16.8 5.8 16.7.7 0 2.3-1 4.3-2 3.7-1.5 5.6-1.6 5.6-2.2 0-.7-5.5-4-8.7-7-2-1.7-5.6-5.5-6.1-6-.2-.2-.9-.3-.9.6v-.1z" class="cls-107" opacity=".5"/>
    <path d="M1072.5 154c0 .6 1.1 16.7 5.7 16.7.7 0 2.3-1 4.3-2 3.6-1.6 5.6-1.6 5.6-2.2 0-.8-5.5-4-8.8-7-1.9-1.7-5.5-5.4-6-6-.2-.2-.9-.3-.9.6l.1-.1z" class="cls-87" opacity=".5"/>
    <path d="M1072.5 154c0 .6 1.1 16.7 5.7 16.6.7 0 2.3-1 4.3-1.8 3.6-1.7 5.5-1.7 5.5-2.3 0-.8-5.4-4-8.7-7-1.9-1.7-5.5-5.4-6-6-.2-.2-.8-.2-.8.6v-.1z" class="cls-105" opacity=".5"/>
    <path d="M1072.5 154c0 .6 1.1 16.7 5.7 16.6.7 0 2.3-1 4.3-2 3.6-1.5 5.5-1.6 5.5-2.2 0-.7-5.4-4-8.7-6.8a188 188 0 0 1-6-6c-.2-.3-.8-.3-.8.5v-.1z" class="cls-108" opacity=".5"/>
    <path d="M1072.5 154c0 .6 1.1 16.6 5.6 16.5.8 0 2.4-1 4.3-1.8 3.6-1.7 5.5-1.7 5.5-2.3 0-.8-5.4-4-8.6-7a166 166 0 0 1-6-6c-.2-.1-.8-.1-.8.7v-.1z" class="cls-92" opacity=".5"/>
    <path d="M1072.5 154c0 .6 1.1 16.6 5.6 16.5.8 0 2.3-1 4.3-2 3.6-1.5 5.5-1.6 5.5-2.2 0-.7-5.4-3.8-8.6-6.8-2-1.7-5.5-5.4-6-6-.2-.2-.8-.2-.8.6v-.1z" class="cls-84" opacity=".5"/>
    <path d="M1072.5 154c0 .6 1.1 16.5 5.6 16.4.7 0 2.3-1 4.3-1.8 3.5-1.6 5.4-1.7 5.4-2.3 0-.8-5.3-4-8.5-6.8-2-1.7-5.5-5.4-6-6-.2-.2-.8-.2-.8.6v-.1z" class="cls-85" opacity=".5"/>
    <path d="M1072.5 154c0 .6 1.1 16.5 5.6 16.4.7 0 2.3-1 4.2-2 3.6-1.5 5.5-1.5 5.5-2.1 0-.8-5.4-4-8.5-6.8a172 172 0 0 1-6-6c-.2-.2-.8-.2-.8.6v-.1z" class="cls-86" opacity=".5"/>
    <path d="M1072.5 154c0 .6 1.1 16.4 5.6 16.3.7 0 2.3-1 4.2-1.8 3.5-1.6 5.4-1.7 5.4-2.3 0-.7-5.3-3.8-8.5-6.7l-5.9-6c-.2-.2-.8-.2-.8.6v-.1z" class="cls-88" opacity=".5"/>
    <path d="M1072.5 154c0 .6 1.1 16.4 5.6 16.3.7 0 2.2-1 4.2-1.8 3.5-1.6 5.4-1.7 5.4-2.3 0-.8-5.4-3.8-8.5-6.7l-5.9-6c-.2-.2-.8-.2-.8.6z" class="cls-89" opacity=".5"/>
    <path d="M1072.5 154c0 .6 1.2 16.3 5.6 16.2.7 0 2.2-1 4.2-1.8 3.4-1.6 5.3-1.6 5.3-2.2 0-.8-5.3-4-8.4-6.7l-5.9-6c-.2-.1-.8-.2-.8.6z" class="cls-91" opacity=".5"/>
    <path d="M1072.5 154c0 .6 1.2 16.3 5.6 16 .7 0 2.2-.7 4.1-1.6 3.4-1.6 5.3-1.7 5.3-2.3 0-.7-5.2-3.8-8.3-6.6l-5.9-6c-.2-.2-.8-.2-.8.6z" class="cls-90" opacity=".5"/>
    <path d="M1072.5 154c0 .6 1.2 16.2 5.6 16 .7 0 2.2-.8 4.1-1.7 3.4-1.5 5.3-1.6 5.3-2.2 0-.8-5.3-3.8-8.3-6.7-1.9-1.7-5.4-5.3-5.9-5.8-.2-.2-.8-.3-.8.5z" class="cls-100" opacity=".5"/>
    <path d="M1072.5 154c0 .6 1.2 16 5.5 16 .8 0 2.3-1 4.2-1.7 3.4-1.6 5.2-1.6 5.3-2.2 0-.8-5.3-3.8-8.3-6.7a158 158 0 0 1-5.9-5.8c-.2-.2-.8-.3-.8.5z" class="cls-93" opacity=".5"/>
    <path d="M1072.5 154c0 .6 1.2 16 5.5 16 .7 0 2.2-1 4.1-1.8 3.4-1.5 5.3-1.6 5.3-2.2 0-.7-5.2-3.8-8.2-6.6-1.9-1.7-5.4-5.3-5.9-5.8-.2-.2-.8-.3-.8.5z" class="cls-94" opacity=".6"/>
    <path d="M1072.5 154c0 .6 1.2 16 5.5 16 .7 0 2.2-1 4.1-1.8 3.4-1.6 5.2-1.6 5.2-2.2 0-.8-5.1-3.8-8.2-6.6l-5.8-5.8c-.2-.2-.8-.3-.8.5z" class="cls-95" opacity=".6"/>
    <path d="M1072.5 154c0 .6 1.2 16 5.5 16 .7 0 2.2-1 4-1.8 3.4-1.6 5.3-1.7 5.3-2.3 0-.7-5.2-3.7-8.2-6.5l-5.8-5.8c-.2-.2-.8-.3-.8.5z" class="cls-96" opacity=".6"/>
    <path d="M1072.5 154c0 .6 1.2 16 5.5 15.9.7 0 2.2-1 4-1.8 3.4-1.5 5.2-1.6 5.2-2.2 0-.7-5.1-3.8-8.1-6.5l-5.8-5.8c-.2-.2-.8-.3-.8.5z" class="cls-97" opacity=".6"/>
    <path d="M1072.5 154c0 .6 1.2 16 5.5 15.9.7 0 2.2-1 4-1.8 3.3-1.6 5.2-1.6 5.2-2.2 0-.8-5.1-3.8-8.1-6.5l-5.8-5.8c-.2-.2-.8-.3-.8.5z" class="cls-99" opacity=".6"/>
    <path d="M1072.5 154c0 .6 1.2 15.9 5.5 15.8.7 0 2.2-1 4-1.8 3.3-1.5 5.1-1.6 5.1-2.2 0-.7-5-3.7-8-6.4l-5.8-5.8c-.2-.2-.8-.2-.8.5z" class="cls-98" opacity=".6"/>
    <path d="M1072.5 154c0 .6 1.2 15.9 5.5 15.8.7 0 2.1-1 4-1.8 3.2-1.5 5-1.6 5-2.2 0-.7-5-3.8-8-6.5a99.8 99.8 0 0 1-5.7-5.7c-.2-.2-.8-.3-.8.5z" class="cls-76" opacity=".6"/>
    <path d="M1072.5 154c0 .6 1.2 15.8 5.5 15.7.7 0 2.1-1 4-1.8 3.2-1.5 5-1.5 5-2.1 0-.8-5-3.8-8-6.5a99.8 99.8 0 0 1-5.7-5.7c-.2-.2-.8-.2-.8.5z" class="cls-70" opacity=".6"/>
    <path d="M1072.5 154c0 .6 1.2 15.8 5.4 15.7.7 0 2.2-1 4-1.8 3.2-1.5 5-1.6 5-2.2 0-.7-5-3.7-7.9-6.4a158 158 0 0 1-5.7-5.7c-.2-.2-.8-.2-.8.5z" class="cls-72" opacity=".6"/>
    <path d="M1072.6 154c0 .6 1.1 15.7 5.4 15.6.6 0 2-1 3.9-1.8 3.2-1.5 5-1.5 5-2.1 0-.7-5-3.7-7.9-6.4a157 157 0 0 1-5.7-5.6c-.2-.3-.7-.3-.7.4z" class="cls-71" opacity=".6"/>
    <path d="M1072.6 154c0 .6 1.1 15.7 5.3 15.6.7 0 2.2-1 4-1.8 3.1-1.5 5-1.6 5-2.2 0-.7-5-3.7-7.9-6.3l-5.7-5.7c-.2-.2-.7-.2-.7.5z" class="cls-73" opacity=".6"/>
    <path d="M1072.6 154.2c0 .4 1.1 15.4 5.3 15.3.7 0 2.1-1 4-1.7 3-1.5 4.9-1.6 4.9-2.2 0-.7-5-3.7-7.8-6.3a164 164 0 0 1-5.6-5.6c-.3-.3-.8-.3-.8.5z" class="cls-74" opacity=".6"/>
    <path d="M1072.6 154.2c0 .4 1.1 15.4 5.3 15.3.7 0 2.1-1 4-1.8 3-1.5 4.8-1.5 4.8-2.1 0-.7-5-3.7-7.7-6.3a163 163 0 0 1-5.7-5.6c-.2-.3-.7-.3-.7.5z" class="cls-75" opacity=".6"/>
    <path d="M1072.6 154.2c0 .4 1.1 15.3 5.3 15.2.7 0 2-1 3.9-1.7 3-1.5 4.9-1.6 4.9-2.1 0-.8-5-3.7-7.8-6.3l-5.6-5.6c-.2-.3-.7-.3-.7.4z" class="cls-83" opacity=".6"/>
    <path d="M1072.6 154.2c0 .4 1.2 15.3 5.3 15.2.7 0 2-1 3.9-1.8 3-1.4 4.8-1.5 4.8-2 0-.8-4.9-3.8-7.7-6.3l-5.6-5.6c-.2-.3-.7-.3-.7.5z" class="cls-77" opacity=".6"/>
    <path d="M1072.6 154.2c0 .4 1.2 15.3 5.3 15 .7 0 2-.8 3.8-1.6 3-1.5 4.9-1.5 4.9-2.1 0-.8-5-3.7-7.7-6.3-1.8-1.6-5-5-5.6-5.5-.2-.3-.7-.3-.7.5z" class="cls-78" opacity=".6"/>
    <path d="M1072.6 154.2c0 .4 1.2 15.2 5.3 15 .7 0 2-.8 3.8-1.6 3-1.5 4.8-1.6 4.8-2.2 0-.7-4.8-3.6-7.6-6.2-1.8-1.6-5-5-5.6-5.5-.2-.2-.7-.3-.7.5z" class="cls-79" opacity=".6"/>
    <path d="M1072.6 154.2c0 .4 1.2 15.2 5.3 15 .6 0 2-.8 3.8-1.7 3-1.4 4.8-1.5 4.8-2 0-.8-4.9-3.7-7.6-6.3-1.8-1.6-5-5-5.5-5.5-.3-.2-.8-.3-.8.5z" class="cls-227" opacity=".6"/>
    <path d="M1072.6 154.2c0 .4 1.2 15 5.3 15 .6 0 2-1 3.8-1.7 3-1.5 4.7-1.5 4.7-2.1 0-.8-4.8-3.7-7.5-6.2-1.8-1.6-5-5-5.5-5.5-.2-.2-.8-.2-.8.5z" class="cls-81" opacity=".6"/>
    <path d="M1072.6 154.2c0 .4 1.2 15 5.2 15 .7 0 2-1 3.8-1.8 3-1.4 4.7-1.5 4.8-2 0-.8-4.8-3.7-7.5-6.2-1.8-1.6-5-5-5.5-5.5-.2-.2-.8-.3-.8.5z" class="cls-82" opacity=".6"/>
    <path d="M1072.6 154.2c0 .5 1.2 15 5.2 15 .7-.1 2-1 3.8-1.8 3-1.4 4.7-1.5 4.7-2 0-.8-4.8-3.7-7.5-6.2l-5.5-5.5c-.2-.2-.7-.2-.7.5z" class="cls-80" opacity=".6"/>
    <path d="M1072.6 154.2c0 .5 1.2 15 5.2 14.9.7 0 2-1 3.7-1.8 3-1.4 4.7-1.4 4.7-2 0-.8-4.7-3.7-7.4-6.1l-5.5-5.5c-.2-.2-.7-.2-.7.5z" class="cls-225" opacity=".6"/>
    <path d="M1072.6 154.2c0 .5 1.2 15 5.2 14.8.7 0 2-1 3.7-1.7 3-1.4 4.7-1.5 4.7-2 0-.8-4.7-3.7-7.4-6.2-1.7-1.5-5-4.8-5.5-5.4-.2-.2-.7-.3-.7.5z" class="cls-230" opacity=".6"/>
    <path d="M1072.6 154.2c0 .5 1.2 14.9 5.2 14.8.7 0 2-1 3.7-1.7 3-1.4 4.6-1.5 4.6-2.1 0-.7-4.7-3.6-7.3-6l-5.4-5.5c-.2-.2-.8-.2-.8.5z" class="cls-226" opacity=".6"/>
    <path d="M1072.6 154.2c0 .5 1.2 14.8 5.2 14.7.7 0 2-1 3.7-1.7 2.9-1.4 4.6-1.5 4.6-2 0-.8-4.7-3.6-7.3-6l-5.4-5.5c-.2-.2-.8-.2-.8.5z" class="cls-224" opacity=".6"/>
    <path d="M1072.6 154.2c0 .5 1.2 14.8 5.2 14.7.7 0 2-1 3.7-1.8 2.8-1.3 4.5-1.4 4.5-2 0-.7-4.6-3.6-7.2-6-1.7-1.6-5-4.8-5.4-5.4-.2-.2-.8-.2-.8.5z" class="cls-228" opacity=".7"/>
    <path d="M1072.6 154.2c0 .5 1.2 14.7 5.2 14.6.6 0 2-1 3.6-1.7 2.9-1.3 4.6-1.4 4.6-2 0-.7-4.7-3.6-7.2-6a142 142 0 0 1-5.4-5.4c-.2-.2-.8-.2-.8.5z" class="cls-229" opacity=".7"/>
    <path d="M1072.6 154.2c0 .5 1.2 14.7 5.2 14.6.6 0 1.9-1 3.6-1.7 2.8-1.4 4.5-1.5 4.5-2 0-.8-4.6-3.6-7.1-6-1.7-1.5-5-4.8-5.4-5.4-.2-.2-.8-.2-.8.5z" class="cls-231" opacity=".7"/>
    <path d="M1072.6 154.2c0 .5 1.2 14.6 5.1 14.5.7 0 2-1 3.7-1.7 2.8-1.3 4.5-1.4 4.5-2 0-.7-4.6-3.6-7.2-6a86.4 86.4 0 0 1-5.3-5.3c-.2-.2-.8-.2-.8.5z" class="cls-232" opacity=".7"/>
    <path d="M1072.6 154.2c0 .5 1.2 14.6 5.1 14.5.7 0 2-1 3.6-1.7 2.8-1.4 4.5-1.5 4.5-2 0-.7-4.6-3.6-7-6a55 55 0 0 1-5.4-5.3c-.2-.2-.8-.2-.8.5z" class="cls-233" opacity=".7"/>
    <path d="M1072.6 154.2c0 .5 1.2 14.6 5.1 14.4.7 0 2-.8 3.6-1.7 2.8-1.3 4.5-1.4 4.5-2 0-.7-4.6-3.5-7.1-5.8a145 145 0 0 1-5.3-5.4c-.2-.2-.8-.2-.8.5z" class="cls-234" opacity=".7"/>
    <path d="M1072.6 154.2c0 .5 1.2 14.5 5.1 14.4.7 0 2-1 3.6-1.7 2.7-1.3 4.4-1.4 4.4-2 0-.7-4.5-3.5-7-5.8a138 138 0 0 1-5.3-5.3c-.2-.3-.8-.3-.8.4z" class="cls-235" opacity=".7"/>
    <path d="M1072.6 154.2c0 .5 1.2 14.5 5.1 14.3.6 0 1.9-.8 3.5-1.6 2.8-1.4 4.5-1.5 4.5-2 0-.8-4.6-3.6-7-6-1.7-1.4-4.8-4.6-5.3-5.1-.2-.3-.7-.3-.7.4h-.1z" class="cls-236" opacity=".7"/>
    <path d="M1072.6 154.2c0 .5 1.3 14.4 5.1 14.3.6 0 1.9-1 3.5-1.7 2.7-1.3 4.4-1.4 4.4-2 0-.7-4.5-3.5-7-5.8l-5.2-5.2c-.2-.2-.7-.3-.7.4h-.1z" class="cls-159" opacity=".7"/>
    <path d="M1072.7 154.2c0 .5 1.2 14.4 5 14.2.6 0 1.8-.8 3.5-1.6 2.7-1.3 4.3-1.4 4.3-2 0-.7-4.4-3.5-6.9-5.8l-5.2-5.2c-.2-.2-.8-.3-.8.4h.1z" class="cls-67" opacity=".7"/>
    <path d="M1072.7 154.2c0 .5 1.2 14.3 5 14.2.6 0 1.8-1 3.5-1.7 2.6-1.3 4.3-1.4 4.3-2 0-.6-4.5-3.4-6.9-5.7a142 142 0 0 1-5.2-5.2c-.2-.2-.7-.3-.7.4z" class="cls-68" opacity=".7"/>
    <path d="M1072.7 154.2c0 .5 1.2 14.3 5 14.2.6 0 1.8-1 3.4-1.7 2.7-1.3 4.3-1.4 4.4-2 0-.7-4.5-3.5-6.9-5.7l-5.2-5.2c-.2-.2-.7-.3-.7.4z" class="cls-69" opacity=".7"/>
    <path d="M1072.7 154.2c0 .5 1.2 14.2 5 14 .6 0 1.8-.8 3.4-1.6 2.6-1.3 4.3-1.3 4.3-2 0-.6-4.4-3.4-6.8-5.6l-5.2-5.2c-.2-.2-.7-.3-.7.4z" class="cls-163" opacity=".7"/>
    <path d="M1072.7 154.2c0 .5 1.2 14.2 5 14 .6 0 1.8-.8 3.4-1.6 2.6-1.3 4.2-1.4 4.2-2 0-.6-4.3-3.4-6.7-5.6l-5.2-5.2c-.2-.2-.7-.2-.7.4z" class="cls-156" opacity=".7"/>
    <path d="M1072.7 154.2c0 .5 1.2 14 5 14 .6 0 1.8-.8 3.4-1.6 2.5-1.3 4.2-1.4 4.2-2 0-.7-4.4-3.4-6.7-5.6a137 137 0 0 1-5.2-5.2c-.2-.2-.7-.2-.7.4z" class="cls-157" opacity=".7"/>
    <path d="M1072.7 154.2c0 .5 1.2 14 5 14 .6 0 1.7-1 3.3-1.7 2.6-1.3 4.2-1.4 4.2-2 0-.6-4.3-3.4-6.7-5.6a80.2 80.2 0 0 1-5.1-5.1c-.2-.2-.7-.2-.7.4z" class="cls-158" opacity=".7"/>
    <path d="M1072.7 154.2c0 .5 1.2 14 5 14 .6-.1 1.7-1 3.3-1.7 2.6-1.3 4.2-1.4 4.2-2 0-.6-4.3-3.4-6.7-5.5l-5.1-5.2c-.2-.2-.7-.2-.7.5v-.1z" class="cls-167" opacity=".7"/>
    <path d="M1072.7 154.3c0 .4 1.2 13.9 5 13.8.5 0 1.7-1 3.3-1.7 2.5-1.2 4.1-1.3 4.1-2 0-.6-4.3-3.3-6.6-5.5-1.6-1.4-4.6-4.5-5.1-5-.2-.3-.7-.3-.7.3z" class="cls-160" opacity=".7"/>
    <path d="M1072.7 154.3c0 .4 1.2 13.8 4.9 13.7.6 0 1.8-.8 3.3-1.6 2.6-1.3 4.2-1.4 4.2-2 0-.6-4.3-3.4-6.6-5.5-1.6-1.4-4.6-4.5-5.1-5-.2-.3-.7-.3-.7.3z" class="cls-161" opacity=".7"/>
    <path d="M1072.7 154.3c0 .4 1.2 13.8 4.9 13.7.6 0 1.8-1 3.3-1.7 2.5-1.2 4.1-1.3 4.1-2 0-.6-4.3-3.3-6.5-5.4l-5.1-5c-.2-.3-.7-.3-.7.3z" class="cls-162" opacity=".7"/>
    <path d="M1072.7 154.3c0 .4 1.2 13.8 4.9 13.6.6 0 1.7-.8 3.3-1.6 2.5-1.2 4-1.3 4-2 0-.6-4.2-3.3-6.4-5.4a125 125 0 0 1-5.1-5c-.2-.3-.7-.3-.7.4z" class="cls-170" opacity=".7"/>
    <path d="M1072.7 154.3c0 .4 1.2 13.7 4.9 13.6.6 0 1.7-1 3.3-1.7 2.4-1.2 4-1.3 4-1.8 0-.7-4.2-3.5-6.5-5.5l-5-5c-.2-.3-.7-.3-.7.4z" class="cls-164" opacity=".7"/>
    <path d="M1072.7 154.3c0 .4 1.2 13.7 4.9 13.5.6 0 1.7-.8 3.2-1.6 2.5-1.2 4-1.3 4-2 0-.6-4.1-3.3-6.4-5.3l-5-5c-.2-.3-.7-.3-.7.3z" class="cls-165" opacity=".7"/>
    <path d="M1072.7 154.3c0 .4 1.2 13.6 4.8 13.5.7 0 1.8-1 3.3-1.6 2.4-1.3 4-1.3 4-2 0-.6-4.2-3.3-6.4-5.3l-5-5c-.2-.3-.7-.3-.7.4z" class="cls-166" opacity=".7"/>
    <path d="M1072.7 154.3c0 .4 1.2 13.6 4.8 13.4.6 0 1.7-.8 3.3-1.6 2.4-1.2 4-1.3 4-1.8 0-.7-4.2-3.4-6.4-5.5a130 130 0 0 1-5-5c-.2-.2-.7-.2-.7.5z" class="cls-143" opacity=".7"/>
    <path d="M1072.7 154.3c0 .4 1.3 13.5 4.8 13.4.6 0 1.7-1 3.2-1.6 2.4-1.2 4-1.3 4-2 0-.6-4.1-3.3-6.3-5.3a77 77 0 0 1-5-5c-.2-.2-.7-.2-.7.5z" class="cls-168" opacity=".8"/>
    <path d="M1072.7 154.3c0 .4 1.3 13.5 4.8 13.3.6 0 1.7-.8 3.2-1.6 2.4-1.1 4-1.2 4-1.8 0-.7-4.2-3.4-6.3-5.4-1.6-1.4-4.4-4.4-5-5-.2-.2-.7-.2-.7.5z" class="cls-169" opacity=".8"/>
    <path d="M1072.7 154.3c0 .4 1.3 13.4 4.8 13.3.6 0 1.7-.8 3.2-1.6 2.3-1.2 3.9-1.3 3.9-1.8 0-.7-4.1-3.4-6.2-5.4a135 135 0 0 1-5-5c-.2-.1-.7-.2-.7.5z" class="cls-140" opacity=".8"/>
    <path d="M1072.7 154.3c0 .4 1.3 13.4 4.8 13.2.6 0 1.7-.8 3.2-1.6 2.3-1.1 3.8-1.2 3.8-1.8 0-.7-4-3.3-6.2-5.3a71.7 71.7 0 0 1-4.9-5c-.2-.1-.7-.2-.7.5z" class="cls-147" opacity=".8"/>
    <path d="M1072.8 154.3c0 .4 1.2 13.3 4.7 13.2.6 0 1.7-.8 3.1-1.6 2.3-1.2 3.9-1.3 3.9-1.8 0-.7-4-3.4-6.2-5.3a118 118 0 0 1-4.9-5c-.2-.1-.7-.2-.7.5h.1z" class="cls-142" opacity=".8"/>
    <path d="M1072.8 154.3c0 .4 1.2 13.3 4.7 13 .6 0 1.6-.7 3.1-1.4 2.3-1.2 3.8-1.3 3.8-2 0-.5-4-3.2-6-5.1a77.3 77.3 0 0 1-5-5c-.2-.1-.6-.2-.6.5z" class="cls-141" opacity=".8"/>
    <path d="M1072.8 154.3c0 .4 1.2 13.2 4.7 13 .6 0 1.6-.7 3-1.5 2.3-1.1 3.9-1.2 3.9-1.8 0-.7-4-3.3-6.1-5.2l-4.9-5c-.2-.1-.6-.2-.6.5z" class="cls-144" opacity=".8"/>
    <path d="M1072.8 154.3c0 .4 1.2 13.2 4.7 13 .6 0 1.6-.8 3-1.5 2.3-1.2 3.8-1.3 3.8-1.8 0-.7-4-3.4-6-5.2l-4.9-5c-.2-.1-.6-.1-.6.5z" class="cls-151" opacity=".8"/>
    <path d="M1072.8 154.3c0 .4 1.2 13.2 4.6 13 .6 0 1.7-.8 3.1-1.6 2.2-1 3.7-1.2 3.7-1.8 0-.6-4-3.3-6-5.2a121 121 0 0 1-4.8-4.8c-.2-.2-.6-.2-.6.4z" class="cls-146" opacity=".8"/>
    <path d="M1072.8 154.3c0 .4 1.2 13 4.6 13 .6 0 1.7-1 3-1.6 2.3-1.1 3.8-1.2 3.8-1.8 0-.7-4-3.3-6-5.2-1.5-1.3-4.2-4.2-4.8-4.8-.2-.2-.6-.2-.6.4z" class="cls-145" opacity=".8"/>
    <path d="M1072.8 154.3c0 .4 1.2 13 4.6 13 .6-.1 1.6-1 3-1.7 2.2-1 3.8-1.2 3.8-1.7 0-.7-4-3.3-6-5.2-1.5-1.3-4.2-4.2-4.8-4.8-.1-.2-.6-.2-.6.4z" class="cls-148" opacity=".8"/>
    <path d="M1072.8 154.3c0 .4 1.2 13 4.6 12.9.6 0 1.6-.8 3-1.6 2.2-1.1 3.7-1.2 3.7-1.8 0-.6-3.9-3.3-5.9-5l-4.8-5c-.1-.1-.6-.1-.6.5z" class="cls-155" opacity=".8"/>
    <path d="M1072.8 154.3c0 .4 1.2 13 4.6 12.8.6 0 1.6-.8 3-1.5 2.1-1.1 3.6-1.2 3.6-1.8 0-.7-3.8-3.3-5.8-5.1l-4.8-4.8c-.2-.2-.6-.2-.6.4z" class="cls-150" opacity=".8"/>
    <path d="M1072.8 154.3c0 .4 1.2 13 4.6 12.8.6 0 1.6-1 3-1.6 2-1 3.6-1.2 3.6-1.7 0-.7-3.9-3.3-5.8-5.1l-4.8-4.8c-.2-.2-.6-.2-.6.4z" class="cls-149" opacity=".8"/>
    <path d="M1072.8 154.3c0 .4 1.2 12.9 4.6 12.7.6 0 1.6-.8 3-1.5 2-1.1 3.5-1.2 3.5-1.8 0-.7-3.8-3.3-5.7-5l-4.8-4.8c-.1-.2-.6-.2-.6.4z" class="cls-152" opacity=".8"/>
    <path d="M1072.8 154.3c0 .4 1.2 12.8 4.6 12.7.6 0 1.5-1 3-1.6 2-1 3.5-1.2 3.5-1.7 0-.7-3.8-3.3-5.7-5l-4.8-4.8c-.2-.2-.6-.2-.6.4z" class="cls-126" opacity=".8"/>
    <path d="M1072.8 154.3c0 .4 1.3 12.8 4.6 12.6.6 0 1.5-.8 2.9-1.5 2-1 3.5-1.2 3.5-1.8 0-.6-3.8-3.2-5.7-5l-4.7-4.7c-.1-.2-.6-.2-.6.4z" class="cls-154" opacity=".8"/>
    <path d="M1072.8 154.3c0 .4 1.3 12.7 4.5 12.6.6 0 1.6-.8 3-1.6 2-1 3.5-1.1 3.5-1.7 0-.7-3.8-3.2-5.7-5l-4.7-4.7c-.2-.1-.6-.2-.6.4z" class="cls-153" opacity=".8"/>
    <path d="M1072.8 154.3c0 .4 1.3 12.7 4.5 12.5.6 0 1.6-.8 3-1.5 2-1 3.4-1.2 3.4-1.7 0-.7-3.7-3.2-5.6-5l-4.7-4.6c-.1-.2-.6-.3-.6.3z" class="cls-123" opacity=".8"/>
    <path d="M1072.8 154.3c0 .4 1.3 12.6 4.5 12.5.6 0 1.5-.8 3-1.6 1.9-1 3.4-1.1 3.4-1.7 0-.6-3.8-3.2-5.6-5l-4.7-4.5c-.1-.2-.6-.3-.6.3z" class="cls-131" opacity=".8"/>
    <path d="M1072.8 154.3c0 .4 1.3 12.6 4.5 12.4.6 0 1.5-.8 2.9-1.5 2-1 3.4-1.1 3.4-1.7 0-.7-3.7-3.2-5.5-5l-4.7-4.5c-.1-.2-.6-.2-.6.3z" class="cls-125" opacity=".8"/>
    <path d="M1072.8 154.3c0 .4 1.3 12.5 4.5 12.4.6 0 1.5-.8 2.8-1.5 2-1 3.4-1.2 3.4-1.7 0-.7-3.6-3.2-5.4-5-1.5-1.2-4.1-4-4.7-4.5-.1-.2-.6-.2-.6.3z" class="cls-124" opacity=".8"/>
    <path d="M1072.8 154.3c0 .4 1.3 12.5 4.5 12.3.6 0 1.5-.8 2.8-1.5 2-1 3.4-1.1 3.4-1.7 0-.6-3.7-3.2-5.5-4.8l-4.6-4.6c-.1-.2-.6-.2-.6.3z" class="cls-128" opacity=".8"/>
    <path d="M1072.8 154.3c0 .4 1.3 12.4 4.5 12.3.6 0 1.5-.8 2.8-1.5 2-1 3.3-1.1 3.3-1.7 0-.7-3.6-3.2-5.4-4.8l-4.6-4.6c-.1-.2-.6-.2-.6.3z" class="cls-127" opacity=".8"/>
    <path d="M1072.8 154.3c0 .4 1.3 12.4 4.5 12.2.6 0 1.5-.8 2.8-1.5 1.9-1 3.3-1 3.3-1.6 0-.7-3.6-3.2-5.4-4.8l-4.6-4.6c-.1-.2-.6-.2-.6.3z" class="cls-130" opacity=".8"/>
    <path d="M1072.8 154.3c0 .4 1.3 12.4 4.5 12.2.6 0 1.4-.8 2.8-1.5 1.8-1 3.2-1.1 3.2-1.7 0-.6-3.6-3.1-5.3-4.7l-4.6-4.6c-.1-.2-.6-.2-.6.4v-.1z" class="cls-129" opacity=".8"/>
    <path d="M1072.8 154.3c0 .4 1.3 12.3 4.5 12 .5 0 1.4-.7 2.7-1.4 1.9-1 3.3-1 3.3-1.6 0-.7-3.6-3.2-5.3-4.8-1.4-1.2-4-4-4.6-4.5-.1-.2-.5-.2-.5.3h-.1z" class="cls-134" opacity=".8"/>
    <path d="M1072.8 154.4c0 .3 1.3 12.2 4.5 12 .5 0 1.4-.8 2.7-1.5 1.8-1 3.2-1.1 3.2-1.6 0-.7-3.5-3.2-5.2-4.8-1.4-1.2-4-4-4.6-4.5-.1-.2-.5-.2-.5.4h-.1z" class="cls-133" opacity=".8"/>
    <path d="M1072.8 154.4c0 .3 1.3 12 4.4 12 .6 0 1.5-.8 2.7-1.5 1.9-1 3.3-1.1 3.3-1.7 0-.6-3.6-3.1-5.2-4.7-1.4-1.2-4-4-4.6-4.5-.1-.2-.6-.2-.6.4z" class="cls-132" opacity=".9"/>
    <path d="M1072.9 154.4c0 .3 1.2 12 4.3 12 .6-.1 1.4-1 2.7-1.6 1.8-1 3.2-1 3.2-1.6 0-.7-3.5-3.2-5.1-4.7l-4.5-4.5c-.2-.2-.6-.2-.6.4z" class="cls-135" opacity=".9"/>
    <path d="M1072.9 154.4c0 .3 1.2 12 4.3 11.9.6 0 1.4-.8 2.7-1.5 1.8-1 3.2-1.1 3.2-1.6 0-.7-3.5-3.2-5.2-4.7a63 63 0 0 1-4.5-4.5c-.1-.1-.6-.2-.6.4h.1z" class="cls-138" opacity=".9"/>
    <path d="M1072.9 154.4c0 .3 1.2 12 4.3 11.8.6 0 1.4-.8 2.7-1.5 1.7-1 3.1-1 3.1-1.6 0-.6-3.4-3.1-5-4.6l-4.5-4.5c-.2-.2-.6-.2-.6.4z" class="cls-137" opacity=".9"/>
    <path d="M1072.9 154.4c0 .3 1.2 12 4.3 11.8.5 0 1.4-.8 2.6-1.5 1.8-1 3.1-1 3.1-1.6 0-.7-3.4-3.1-5-4.6a96.4 96.4 0 0 1-4.5-4.5c-.1-.2-.5-.2-.5.4z" class="cls-136" opacity=".9"/>
    <path d="M1072.9 154.4c0 .3 1.3 11.9 4.3 11.7.5 0 1.4-.8 2.6-1.4 1.7-1 3.1-1.1 3.1-1.7 0-.6-3.4-3-5-4.5l-4.4-4.5c-.2-.2-.6-.2-.6.4z" class="cls-139" opacity=".9"/>
    <path d="M1072.9 154.4c0 .3 1.3 11.8 4.3 11.7.5 0 1.3-.8 2.6-1.5 1.7-1 3-1 3-1.6 0-.6-3.4-3-5-4.5a101 101 0 0 1-4.4-4.5c-.1-.1-.5-.2-.5.4z" class="cls-109" opacity=".9"/>
    <path d="M1072.9 154.4c0 .3 1.3 11.8 4.3 11.6.5 0 1.3-.8 2.6-1.4 1.6-1 3-1 3-1.6 0-.7-3.4-3.1-5-4.6a99.4 99.4 0 0 1-4.4-4.4c-.1-.2-.5-.2-.5.4z" class="cls-115" opacity=".9"/>
    <path d="M1072.9 154.4c0 .3 1.3 11.7 4.3 11.6.5 0 1.3-.8 2.5-1.5 1.7-1 3-1 3-1.6 0-.6-3.3-3-4.9-4.5a56 56 0 0 1-4.3-4.4c-.2-.1-.6-.2-.6.4z" class="cls-111" opacity=".9"/>
    <path d="M1072.9 154.4c0 .3 1.3 11.7 4.3 11.5.5 0 1.3-.8 2.5-1.4 1.6-1 3-1 3-1.6 0-.7-3.4-3-4.9-4.5l-4.4-4.4c-.1-.1-.5-.2-.5.4z" class="cls-110" opacity=".9"/>
    <path d="M1072.9 154.4c0 .3 1.3 11.6 4.3 11.5.5 0 1.3-.8 2.5-1.5 1.6-1 3-1 3-1.5 0-.7-3.4-3.1-4.9-4.5a97.3 97.3 0 0 1-4.3-4.4c-.2-.1-.6-.2-.6.4z" class="cls-112" opacity=".9"/>
    <path d="M1072.9 154.4c0 .3 1.3 11.6 4.2 11.4.6 0 1.3-.7 2.5-1.4 1.6-1 3-1 3-1.6 0-.6-3.3-3-4.8-4.4a97.4 97.4 0 0 1-4.3-4.4c-.2-.1-.6-.2-.6.4z" class="cls-118" opacity=".9"/>
    <path d="M1072.9 154.4c0 .3 1.3 11.6 4.2 11.4.6 0 1.3-.8 2.5-1.4 1.6-1 3-1 3-1.6 0-.6-3.3-3-4.8-4.4l-4.3-4.3c-.2-.2-.6-.2-.6.3z" class="cls-114" opacity=".9"/>
    <path d="M1072.9 154.4c0 .3 1.3 11.5 4.2 11.3.5 0 1.3-.7 2.5-1.4 1.5-1 2.9-1 2.9-1.6 0-.6-3.3-3-4.7-4.3a95.2 95.2 0 0 1-4.3-4.3c-.2-.2-.6-.2-.6.3z" class="cls-113" opacity=".9"/>
    <path d="M1072.9 154.4c0 .3 1.3 11.5 4.2 11.3.5 0 1.3-.8 2.5-1.4 1.5-1 2.8-1 2.8-1.6 0-.6-3.2-3-4.7-4.4a53.4 53.4 0 0 1-4.2-4.3c-.2-.1-.6-.1-.6.4z" class="cls-116" opacity=".9"/>
    <path d="M1072.9 154.4c0 .3 1.3 11.4 4.2 11.2.5 0 1.3-.7 2.4-1.4 1.5-.8 2.9-1 2.9-1.5 0-.7-3.2-3-4.7-4.3a100 100 0 0 1-4.2-4.3c-.2-.2-.6-.2-.6.3z" class="cls-122" opacity=".9"/>
    <path d="M1072.9 154.4c0 .3 1.3 11.4 4.2 11.2.5 0 1.2-.8 2.4-1.4 1.5-1 2.8-1 2.8-1.6 0-.6-3.2-3-4.6-4.3a93 93 0 0 1-4.2-4.2c-.2-.2-.6-.2-.6.3z" class="cls-117" opacity=".9"/>
    <path d="M1072.9 154.4c0 .3 1.3 11.3 4.2 11 .5 0 1.2-.6 2.4-1.3 1.5-.8 2.7-1 2.8-1.5 0-.6-3.2-3-4.6-4.3a98.6 98.6 0 0 1-4.2-4.2c-.2-.2-.6-.2-.6.3z" class="cls-120" opacity=".9"/>
    <path d="M1072.9 154.4c0 .3 1.3 11.3 4.2 11 .5 0 1.2-.7 2.4-1.3 1.4-.8 2.7-1 2.7-1.5 0-.7-3.1-3-4.5-4.3a97.7 97.7 0 0 1-4.2-4.2c-.2-.2-.6-.2-.6.3z" class="cls-241" opacity=".9"/>
    <path d="M1072.9 154.4c0 .3 1.3 11.2 4.2 11 .5 0 1.2-.7 2.3-1.4 1.5-.8 2.8-1 2.8-1.5 0-.6-3.2-3-4.5-4.2a90.9 90.9 0 0 1-4.2-4.2c-.2-.2-.5-.2-.5.3h-.1z" class="cls-121" opacity=".9"/>
    <path d="M1072.9 154.4c0 .3 1.3 11.2 4.1 11 .6 0 1.2-.7 2.4-1.4 1.4-.8 2.7-1 2.7-1.5 0-.6-3.1-3-4.4-4.2a96.3 96.3 0 0 1-4.2-4.2c-.2-.2-.6-.2-.6.3z" class="cls-119" opacity=".9"/>
    <path d="M1073 154.4c0 .4 1.2 11 4 11 .6 0 1.2-.8 2.4-1.4 1.4-.8 2.6-1 2.7-1.5 0-.7-3.1-3-4.4-4.2a89.6 89.6 0 0 1-4.2-4.2c-.2-.1-.5-.2-.5.3z" class="cls-239" opacity=".9"/>
    <path d="M1073 154.4c0 .4 1.2 11 4 11 .5-.1 1.2-.8 2.3-1.5 1.4-.8 2.7-1 2.7-1.5a88.8 88.8 0 0 1-8.5-8.3c-.2-.1-.5-.2-.5.3z" class="cls-238" opacity=".9"/>
    <path d="M1073 154.4c0 .4 1.3 11 4 10.9.5 0 1.2-.8 2.3-1.4 1.4-.8 2.6-1 2.6-1.5 0-.6-3-3-4.3-4.1a100 100 0 0 1-4.1-4.2c-.2-.1-.5-.2-.5.3z" class="cls-242" opacity=".9"/>
    <path d="M1073 154.4c0 .4 1.3 11 4 10.8.5 0 1.2-.7 2.3-1.4 1.3-.8 2.6-1 2.6-1.5 0-.6-3-3-4.3-4a87.6 87.6 0 0 1-4.1-4.2c-.2-.1-.5-.2-.5.3z" class="cls-240" opacity=".9"/>
    <path d="M1073 154.4c0 .4 1.3 11 4 10.8.5 0 1.2-.8 2.3-1.4 1.3-.8 2.5-1 2.5-1.5 0-.6-3-3-4.2-4a86.8 86.8 0 0 1-4.1-4.2c-.2-.1-.5-.2-.5.3z" class="cls-244" opacity="1"/>
    <path d="M1073 154.4c0 .4 1.3 10.9 4 10.7.5 0 1.1-.7 2.2-1.4 1.3-.7 2.6-1 2.6-1.4 0-.6-3-3-4.2-4a91.9 91.9 0 0 1-4.1-4.2c-.2-.1-.5-.1-.5.4v-.1z" class="cls-250" opacity="1"/>
    <path d="M1073 154.4c0 .4 1.3 10.8 4 10.7.5 0 1.1-.8 2.2-1.4 1.3-.8 2.5-1 2.5-1.4 0-.7-3-3-4.2-4a85.6 85.6 0 0 1-4-4.2c-.2-.1-.5-.1-.5.4v-.1z" class="cls-245" opacity="1"/>
    <path d="M1073 154.4c0 .4 1.3 10.8 4 10.6.5 0 1.1-.7 2.2-1.3 1.2-.8 2.5-1 2.5-1.5 0-.6-3-3-4.2-4a89.6 89.6 0 0 1-4-4c-.1-.2-.5-.2-.5.2z" class="cls-243" opacity="1"/>
    <path d="M1073 154.4c0 .4 1.3 10.8 4 10.6.5 0 1-.8 2.2-1.4 1.2-.7 2.4-1 2.4-1.4 0-.7-2.9-3-4-4a89.7 89.7 0 0 1-4.1-4c-.1-.2-.5-.2-.5.2z" class="cls-248" opacity="1"/>
    <path d="M1073 154.4c0 .4 1.3 10.7 4 10.5.4 0 1-.7 2.1-1.3 1.2-.8 2.5-1 2.5-1.5 0-.6-3-3-4.1-4a88.4 88.4 0 0 1-4-4 .3.3 0 0 0-.5.3z" class="cls-246" opacity="1"/>
    <path d="M1073 154.5c0 .3 1.3 10.6 4 10.4.4 0 1-.7 2-1.4 1.3-.7 2.5-1 2.5-1.4 0-.6-2.9-3-4-4a50 50 0 0 1-4-4c-.1-.1-.5-.1-.5.4z" class="cls-249" opacity="1"/>
    <path d="M1073 154.5c0 .3 1.3 10.5 4 10.3.4 0 1-.7 2-1.3 1.3-.7 2.4-1 2.5-1.4 0-.7-2.9-3-4-4a50 50 0 0 1-4-4c-.1 0-.5-.1-.5.4z" class="cls-247" opacity="1"/>
    <path d="M1073 154.5c0 .3 1.3 10.5 4 10.3.4 0 1-.7 2-1.4 1.2-.7 2.4-.8 2.4-1.4 0-.6-2.8-3-4-4l-3.9-4c-.1 0-.5 0-.5.5z" class="cls-251" opacity="1"/>
    <path d="M1073 154.5c0 .3 1.3 10.4 4 10.2.4 0 1-.7 2-1.3 1.2-.7 2.3-1 2.3-1.4 0-.6-2.8-3-3.8-4a50 50 0 0 1-4-4c-.1 0-.5 0-.5.5z" class="cls-237" opacity="1"/>
    <path d="M1073 154.5c0 .3 1.3 10.4 3.9 10.2.5 0 1-.7 2-1.4 1.2-.6 2.4-.8 2.4-1.3 0-.6-2.8-3-3.9-4l-4-4s-.4 0-.4.5z" class="cls-252"/>
    <path d="M1073 154.5c0 .3 1.3 10.3 3.9 10 .5 0 1-.6 2-1.2 1.1-.7 2.3-.8 2.3-1.4 0-.6-2.7-2.8-3.8-3.8-1.2-1-3.3-3.2-4-4 0 0-.4-.1-.4.4z" class="cls-27"/>
  </g>
  <g fill="#fff" class="cls-258" opacity=".5">
    <path d="M1057.5 219c-30.8 12.6-78.5 21.5-79.7 18.3-1.8-4.8 37.4-30.3 68.5-44.2 30.4-13.6 68-19 70.5-14.3 2.4 4.6-28.5 27.6-59.3 40.2z" class="cls-5" opacity=".1"/>
    <path d="M1057.5 219c-30.8 12.5-78.3 21.4-79.5 18.2-1.8-4.8 37.3-30.3 68.3-44.1 30.3-13.6 67.7-19 70.3-14.2 2.4 4.5-28.4 27.5-59.1 40z" class="cls-4" opacity=".1"/>
    <path d="M1057.5 218.9c-30.7 12.5-78.1 21.4-79.3 18.2-1.8-4.8 37.2-30.2 68.1-44 30.3-13.5 67.6-19 70.1-14.2 2.4 4.5-28.3 27.5-59 40h.1z" class="cls-3" opacity=".1"/>
    <path d="M1057.4 218.8c-30.6 12.5-77.9 21.4-79 18.2-1.8-4.8 37-30.1 68-44 30.1-13.4 67.3-18.8 69.8-14 2.4 4.4-28.2 27.3-58.8 39.8z" class="cls-18" opacity=".1"/>
    <path d="M1057.3 218.7c-30.5 12.5-77.6 21.3-78.8 18.2-1.8-4.8 37-30 67.8-43.8 30.1-13.4 67.2-18.8 69.7-14.1 2.4 4.5-28 27.3-58.6 39.7h-.1z" class="cls-17" opacity=".1"/>
    <path d="M1057.3 218.7c-30.4 12.4-77.4 21.2-78.6 18-1.8-4.7 36.9-30 67.6-43.6 30-13.4 67-18.8 69.6-14 2.3 4.4-28 27-58.6 39.6z" class="cls-16" opacity=".1"/>
    <path d="M1057.3 218.6c-30.4 12.4-77.2 21.2-78.4 18-1.8-4.7 36.8-29.8 67.4-43.5 30-13.3 67-18.7 69.4-14 2.4 4.4-28 27-58.4 39.5z" class="cls-15" opacity=".1"/>
    <path d="M1057.3 218.5c-30.3 12.4-77 21.2-78.2 18-1.8-4.7 36.6-29.7 67.2-43.4 30-13.3 66.7-18.7 69.2-14 2.4 4.5-27.9 27-58.2 39.4z" class="cls-14" opacity=".1"/>
    <path d="M1057.3 218.5c-30.3 12.3-76.8 21-78 17.9-1.8-4.7 36.5-29.6 67-43.3 29.9-13.3 66.6-18.6 69-14 2.4 4.5-27.8 27-58 39.4z" class="cls-8" opacity=".1"/>
    <path d="M1057.3 218.4c-30.2 12.3-76.6 21-77.8 17.9-1.8-4.7 36.4-29.6 66.9-43.1 29.7-13.3 66.3-18.7 68.8-14 2.3 4.4-27.8 26.9-58 39.2h.1z" class="cls-7" opacity=".1"/>
    <path d="M1057.3 218.3c-30.2 12.3-76.4 21-77.6 17.9-1.8-4.7 36.3-29.5 66.7-43 29.7-13.3 66.1-18.6 68.6-14 2.3 4.5-27.7 26.8-57.8 39h.1z" class="cls-26" opacity=".1"/>
    <path d="M1057.2 218.3c-30 12.2-76.1 20.9-77.3 17.7-1.8-4.6 36.1-29.3 66.5-42.8 29.6-13.2 66-18.6 68.4-14 2.4 4.5-27.6 26.8-57.6 39z" class="cls-25" opacity=".1"/>
    <path d="M1057.1 218.2c-30 12.2-75.9 20.9-77 17.8-1.8-4.7 36-29.3 66.3-42.8 29.6-13.2 65.8-18.5 68.3-14 2.3 4.5-27.6 26.7-57.6 39z" class="cls-24" opacity=".1"/>
    <path d="M1057.1 218c-29.9 12.3-75.7 21-76.9 17.8-1.7-4.6 36-29.1 66.2-42.6 29.5-13.2 65.6-18.5 68-13.8 2.4 4.3-27.3 26.5-57.3 38.7z" class="cls-23" opacity=".1"/>
    <path d="M1057.1 218c-29.9 12.2-75.5 20.8-76.7 17.7-1.7-4.6 35.9-29 66-42.5 29.4-13.1 65.5-18.4 68-13.8 2.2 4.4-27.5 26.5-57.3 38.6z" class="cls-22" opacity=".1"/>
    <path d="M1057.1 218c-29.8 12-75.3 20.7-76.5 17.6-1.7-4.7 35.7-29 65.8-42.4 29.4-13 65.3-18.4 67.7-13.8 2.3 4.4-27.3 26.4-57 38.6z" class="cls-21" opacity=".1"/>
    <path d="M1057 218c-29.7 12-75 20.6-76.2 17.5-1.8-4.7 35.6-29 65.6-42.3 29.3-13 65.1-18.3 67.6-13.7 2.2 4.3-27.3 26.3-57 38.4z" class="cls-20" opacity=".1"/>
    <path d="M1057 217.8c-29.7 12-74.8 20.7-76 17.6-1.8-4.7 35.5-28.8 65.4-42.2 29.2-13 65-18.3 67.4-13.7 2.3 4.3-27.2 26.2-56.8 38.3z" class="cls-19" opacity=".1"/>
    <path d="M1057 217.8c-29.6 12-74.7 20.6-75.8 17.5-1.8-4.7 35.3-28.8 65.2-42 29.2-13 64.8-18.3 67.2-13.7 2.3 4.3-27 26-56.6 38.2z" class="cls-13" opacity=".1"/>
    <path d="M1056.9 217.7c-29.5 12-74.4 20.5-75.5 17.4-1.8-4.6 35.2-28.6 65-41.8 29.1-13 64.6-18.3 67-13.7 2.3 4.3-27 26-56.5 38z" class="cls-12" opacity=".1"/>
    <path d="M1056.9 217.6c-29.4 12-74.2 20.5-75.3 17.4-1.8-4.6 35.1-28.5 64.8-41.7 29-13 64.5-18.2 66.8-13.7 2.3 4.3-26.9 26-56.3 38z" class="cls-35" opacity=".1"/>
    <path d="M1056.9 217.6c-29.4 12-74 20.4-75.2 17.3-1.7-4.6 35-28.4 64.7-41.6 29-13 64.3-18.2 66.7-13.6 2.2 4.3-26.9 25.9-56.2 37.9z" class="cls-33" opacity=".1"/>
    <path d="M1056.8 217.5c-29.3 12-73.7 20.4-74.9 17.3-1.7-4.6 35-28.3 64.5-41.5 29-13 64.1-18.1 66.5-13.6 2.3 4.3-26.8 25.8-56 37.8h-.1z" class="cls-36" opacity=".1"/>
    <path d="M1056.8 217.4c-29.2 12-73.5 20.4-74.7 17.3-1.7-4.6 34.8-28.3 64.3-41.4 28.9-12.8 64-18 66.3-13.6 2.3 4.3-26.7 25.8-55.9 37.7z" class="cls-34" opacity=".1"/>
    <path d="M1056.8 217.4c-29.2 11.9-73.3 20.2-74.5 17.2-1.7-4.6 34.7-28.2 64.1-41.3 28.8-12.8 63.8-18 66.1-13.5 2.3 4.3-26.6 25.7-55.7 37.6z" class="cls-30" opacity=".1"/>
    <path d="M1056.8 217.3c-29.1 11.9-73.1 20.2-74.3 17-1.7-4.4 34.6-28 64-41 28.7-12.7 63.5-18 65.9-13.5 2.2 4.3-26.5 25.6-55.6 37.5z" class="cls-29" opacity=".1"/>
    <path d="M1056.7 217.2c-29 11.9-72.9 20.2-74 17-1.7-4.4 34.4-28 63.7-41 28.7-12.6 63.5-17.8 65.8-13.3 2.2 4.2-26.4 25.5-55.5 37.3z" class="cls-32" opacity=".1"/>
    <path d="M1056.7 217.2c-29 11.8-72.7 20-73.8 17-1.7-4.5 34.3-28 63.5-41 28.6-12.6 63.3-17.7 65.6-13.3 2.2 4.2-26.4 25.4-55.3 37.3z" class="cls-31" opacity=".2"/>
    <path d="M1056.7 217c-29 11.9-72.5 20-73.7 17-1.7-4.4 34.3-27.7 63.4-40.6 28.6-12.7 63.1-18 65.5-13.4 2.2 4.2-26.3 25.3-55.2 37z" class="cls-59" opacity=".2"/>
    <path d="M1056.6 217c-28.8 11.8-72.2 20-73.4 17-1.7-4.5 34.2-27.7 63.2-40.6 28.5-12.7 63-18 65.3-13.4 2.2 4.2-26.3 25.2-55 37h-.1z" class="cls-58" opacity=".2"/>
    <path d="M1056.6 217c-28.8 11.7-72 20-73.2 16.9-1.7-4.5 34-27.6 63-40.5 28.4-12.6 62.8-17.8 65.1-13.4 2.2 4.2-26.1 25.2-54.9 37z" class="cls-28" opacity=".2"/>
    <path d="M1056.6 216.9c-28.7 11.7-71.8 19.9-73 16.9-1.7-4.5 34-27.6 62.8-40.4 28.4-12.6 62.6-17.7 65-13.3 2.1 4.2-26.1 25-54.8 36.8z" class="cls-60" opacity=".2"/>
    <path d="M1056.5 216.8c-28.6 11.7-71.6 19.9-72.7 16.8-1.7-4.4 33.8-27.4 62.6-40.2 28.3-12.5 62.4-17.7 64.7-13.3 2.2 4.2-26 25-54.6 36.7z" class="cls-50" opacity=".2"/>
    <path d="M1056.5 216.8c-28.6 11.6-71.4 19.7-72.5 16.7-1.7-4.4 33.7-27.3 62.5-40 28.1-12.6 62.2-17.7 64.5-13.3 2.2 4-26 24.9-54.5 36.5z" class="cls-49" opacity=".2"/>
    <path d="M1056.5 216.7c-28.5 11.6-71.2 19.7-72.3 16.7-1.7-4.4 33.5-27.2 62.3-40 28-12.5 62-17.6 64.3-13.2 2.2 4.2-25.8 24.9-54.3 36.5z" class="cls-52" opacity=".2"/>
    <path d="M1056.4 216.6c-28.4 11.6-70.9 19.7-72 16.7-1.7-4.4 33.4-27.1 62-40 28.1-12.3 62-17.4 64.2-13.1 2.2 4.2-25.7 24.8-54.2 36.4z" class="cls-51" opacity=".2"/>
    <path d="M1056.4 216.5c-28.3 11.6-70.7 19.7-71.9 16.7-1.6-4.4 33.4-27 62-39.8 28-12.4 61.7-17.5 64-13.1 2.1 4-25.7 24.7-54 36.2h-.1z" class="cls-46" opacity=".2"/>
    <path d="M1056.3 216.5c-28.2 11.5-70.4 19.6-71.6 16.6-1.6-4.4 33.2-27 61.8-39.6 27.9-12.4 61.5-17.5 63.8-13.2 2.1 4-25.7 24.6-54 36.2z" class="cls-45" opacity=".2"/>
    <path d="M1056.3 216.4c-28.2 11.5-70.2 19.6-71.4 16.6-1.6-4.4 33.1-27 61.6-39.5 27.8-12.4 61.3-17.5 63.6-13.1 2.1 4-25.6 24.5-53.8 36z" class="cls-48" opacity=".2"/>
    <path d="M1056.3 216.3c-28.1 11.5-70 19.5-71.2 16.5-1.6-4.3 33-26.7 61.4-39.3 27.8-12.4 61.2-17.4 63.4-13.1 2.2 4-25.4 24.4-53.6 36v-.1z" class="cls-47" opacity=".2"/>
    <path d="M1056.3 216.3c-28 11.4-69.9 19.4-71 16.4-1.6-4.3 32.9-26.7 61.2-39.2 27.7-12.3 61-17.4 63.2-13 2.2 4-25.4 24.3-53.4 35.8z" class="cls-42" opacity=".2"/>
    <path d="M1056.3 216.2c-28 11.4-69.7 19.4-70.8 16.4-1.6-4.3 32.8-26.6 61-39.1 27.6-12.3 60.8-17.3 63-13 2.2 4-25.2 24.3-53.2 35.7z" class="cls-41" opacity=".2"/>
    <path d="M1056.3 216c-28 11.5-69.5 19.5-70.6 16.5-1.7-4.3 32.6-26.5 60.8-39 27.6-12.2 60.7-17.3 63-13 2 4-25.3 24.2-53.3 35.6h.1z" class="cls-44" opacity=".2"/>
    <path d="M1056.2 216c-27.9 11.4-69.2 19.3-70.3 16.4-1.7-4.3 32.5-26.4 60.6-39 27.5-12.1 60.5-17.1 62.7-13 2.1 4.2-25.1 24.3-53 35.7v-.1z" class="cls-43" opacity=".2"/>
    <path d="M1056.2 216c-27.8 11.3-69 19.2-70.2 16.3-1.6-4.3 32.5-26.4 60.5-38.8 27.4-12.1 60.3-17.2 62.5-13 2.1 4-25 24-52.8 35.5z" class="cls-38" opacity=".2"/>
    <path d="M1056.1 216c-27.7 11.3-68.7 19-69.9 16-1.6-4.2 32.3-26.1 60.3-38.5 27.4-12 60.2-17.1 62.4-13 2 4-25 24-52.8 35.4z" class="cls-37" opacity=".2"/>
    <path d="M1056.1 215.9c-27.7 11.3-68.5 19-69.7 16-1.6-4.2 32.2-26 60.1-38.4 27.3-12 60-17 62.2-12.8 2 4-25 23.9-52.6 35.2z" class="cls-40" opacity=".2"/>
    <path d="M1056.1 215.8c-27.6 11.3-68.4 19-69.5 16-1.6-4.2 32-26 60-38.2 27.2-12.1 59.7-17.1 62-13 2 4-25 23.9-52.5 35.2z" class="cls-39" opacity=".2"/>
    <path d="M1056 215.7c-27.5 11.3-68 19-69.2 16-1.6-4.2 32-25.8 59.7-38.1 27.2-12 59.6-17 61.8-12.8 2.1 4-24.7 23.7-52.3 35v-.1z" class="cls-189" opacity=".2"/>
    <path d="M1056 215.7c-27.4 11.2-67.9 19-69 16-1.6-4.3 31.8-26 59.5-38.1 27.1-12 59.5-17 61.7-12.8 2 4-24.7 23.6-52.2 34.9z" class="cls-188" opacity=".2"/>
    <path d="M1056 215.6c-27.4 11.2-67.7 19-68.8 16-1.6-4.3 31.7-25.8 59.3-38 27-12 59.3-17 61.5-12.7 2 4-24.6 23.5-52 34.7z" class="cls-191" opacity=".3"/>
    <path d="M1056 215.5c-27.4 11.2-67.5 18.9-68.6 16-1.6-4.3 31.6-25.7 59.1-38 27-12 59.1-16.8 61.3-12.6 2 4-24.5 23.5-51.9 34.6h.1z" class="cls-190" opacity=".3"/>
    <path d="M1055.9 215.4c-27.2 11.2-67.2 18.9-68.4 16-1.5-4.3 31.6-25.6 59-37.8 27-12 59-16.8 61.1-12.7 2 4-24.4 23.4-51.7 34.5z" class="cls-183" opacity=".3"/>
    <path d="M1055.9 215.4c-27.2 11-67 18.7-68.2 15.8-1.6-4.2 31.4-25.5 58.8-37.6 26.9-12 58.8-16.8 61-12.6 2 4-24.4 23.3-51.6 34.4z" class="cls-182" opacity=".3"/>
    <path d="M1055.9 215.3c-27.1 11-66.9 18.7-68 15.8-1.6-4.2 31.3-25.4 58.6-37.5 26.8-11.8 58.6-16.7 60.8-12.6 2 4-24.3 23.2-51.5 34.3h.1z" class="cls-181" opacity=".3"/>
    <path d="M1055.8 215.3c-27 11-66.6 18.6-67.7 15.7-1.6-4.2 31.2-25.3 58.4-37.4 26.7-11.8 58.5-16.7 60.6-12.6 2 4-24.2 23.2-51.3 34.2z" class="cls-180" opacity=".3"/>
    <path d="M1055.8 215.2c-27 11-66.4 18.6-67.5 15.7-1.6-4.2 31-25.2 58.3-37.2 26.6-11.8 58.2-16.7 60.3-12.6 2 4-24.1 23-51.1 34z" class="cls-187" opacity=".3"/>
    <path d="M1055.8 215c-27 11-66.2 18.7-67.3 15.8-1.6-4.2 31-25.2 58-37.1 26.6-11.8 58.1-16.7 60.3-12.6 2 4-24.1 23-51 34z" class="cls-186" opacity=".3"/>
    <path d="M1055.7 215c-26.8 11-66 18.5-67 15.6-1.6-4 30.8-25 57.9-37 26.5-11.6 57.9-16.5 60-12.4 2 3.9-24 22.9-50.9 33.8z" class="cls-185" opacity=".3"/>
    <path d="M1055.7 215c-26.8 10.9-65.7 18.4-66.8 15.5-1.6-4.1 30.7-25 57.7-36.8 26.4-11.7 57.7-16.6 59.8-12.5 2 3.9-24 22.8-50.7 33.8z" class="cls-184" opacity=".3"/>
    <path d="M1055.7 214.9c-26.7 10.9-65.5 18.4-66.6 15.5-1.6-4.1 30.6-24.8 57.5-36.7 26.3-11.7 57.5-16.5 59.6-12.5 2 4-23.8 22.8-50.5 33.7z" class="cls-175" opacity=".3"/>
    <path d="M1055.6 214.8c-26.6 11-65.3 18.4-66.4 15.5-1.5-4.1 30.5-24.7 57.4-36.6 26.3-11.6 57.4-16.5 59.5-12.4 2 3.8-23.8 22.7-50.5 33.5z" class="cls-174" opacity=".3"/>
    <path d="M1055.6 214.8c-26.5 10.8-65 18.3-66.2 15.4-1.5-4.1 30.4-24.7 57.2-36.5 26.2-11.6 57.2-16.4 59.3-12.4 2 3.9-23.7 22.6-50.3 33.5z" class="cls-173" opacity=".3"/>
    <path d="M1055.6 214.7c-26.5 10.8-64.9 18.2-66 15.4-1.5-4.1 30.3-24.6 57-36.4 26.2-11.5 57-16.4 59.1-12.3 2 3.8-23.6 22.5-50.1 33.3z" class="cls-172" opacity=".3"/>
    <path d="M1055.6 214.6c-26.5 10.8-64.7 18.2-65.8 15.3-1.5-4 30.1-24.4 56.8-36.2 26-11.5 56.9-16.3 59-12.3 2 3.8-23.6 22.4-50 33.2z" class="cls-178" opacity=".3"/>
    <path d="M1055.5 214.6c-26.3 10.7-64.4 18-65.5 15.2-1.5-4 30-24.3 56.6-36 26-11.5 56.7-16.4 58.8-12.4 2 3.9-23.5 22.4-49.9 33v.2z" class="cls-179" opacity=".3"/>
    <path d="M1055.5 214.5c-26.3 10.7-64.2 18-65.3 15.2-1.6-4 29.9-24.3 56.4-36 26-11.4 56.5-16.2 58.6-12.2 2 3.8-23.4 22.3-49.7 33z" class="cls-176" opacity=".3"/>
    <path d="M1055.5 214.4c-26.3 10.7-64 18-65.1 15.2-1.6-4 29.8-24.2 56.2-35.8 25.9-11.5 56.4-16.3 58.4-12.3 2 3.8-23.3 22.2-49.5 33v-.1z" class="cls-177" opacity=".3"/>
    <path d="M1055.4 214.4c-26.1 10.6-63.8 18-64.8 15-1.6-4 29.6-24 56-35.6 25.9-11.4 56.2-16.2 58.2-12.2 2 3.8-23.2 22-49.4 32.8z" class="cls-56" opacity=".3"/>
    <path d="M1055.4 214.3c-26 10.6-63.6 18-64.7 15-1.5-4 29.6-24 55.9-35.5 25.8-11.4 56-16.2 58-12.2 2 3.8-23.1 22-49.2 32.7z" class="cls-55" opacity=".3"/>
    <path d="M1055.3 214.2c-26 10.6-63.3 17.9-64.4 15-1.5-4 29.5-23.8 55.7-35.4 25.7-11.3 55.9-16.1 57.9-12.1 2 3.7-23.1 21.9-49.1 32.5h-.1z" class="cls-54" opacity=".3"/>
    <path d="M1055.3 214c-25.9 10.7-63.1 18-64.2 15-1.5-4 29.4-23.7 55.5-35.2 25.6-11.3 55.7-16 57.7-12.1 2 3.8-23 21.9-49 32.5v-.1z" class="cls-53" opacity=".3"/>
    <path d="M1055.3 214c-25.9 10.6-63 17.8-64 15-1.5-4 29.2-23.7 55.3-35.2 25.6-11.2 55.5-16 57.5-12 2 3.7-23 21.7-48.8 32.3v-.1z" class="cls-217" opacity=".3"/>
    <path d="M1055.3 214c-25.8 10.5-62.7 17.7-63.8 15-1.5-4 29.1-23.7 55.1-35.2 25.5-11.2 55.4-16 57.4-12 1.9 3.7-23 21.7-48.7 32.2z" class="cls-57" opacity=".3"/>
    <path d="M1055.3 214c-25.8 10.5-62.5 17.6-63.6 14.8-1.5-4 29-23.5 55-35 25.4-11.2 55-16 57-12 2 3.7-22.7 21.6-48.5 32l.1.2z" class="cls-171" opacity=".3"/>
    <path d="M1055.3 213.9c-25.7 10.5-62.4 17.6-63.4 14.8-1.5-4 28.9-23.5 54.7-34.8 25.4-11.2 55-16 57-12 2 3.7-22.7 21.5-48.4 32h.1z" class="cls-219" opacity=".3"/>
    <path d="M1055.2 213.8c-25.6 10.5-62 17.6-63.1 14.8-1.5-4 28.7-23.4 54.5-34.7 25.3-11.2 54.9-16 56.8-12 2 3.7-22.6 21.4-48.2 32v-.1z" class="cls-218" opacity=".3"/>
    <path d="M1055.2 213.7c-25.6 10.5-61.9 17.6-63 14.8-1.5-4 28.7-23.3 54.4-34.6 25.3-11.1 54.7-15.8 56.7-12 1.8 3.7-22.6 21.4-48.1 31.8z" class="cls-216" opacity=".3"/>
    <path d="M1055.1 213.7c-25.4 10.4-61.6 17.4-62.7 14.6-1.5-4 28.6-23.1 54.2-34.4 25.2-11 54.5-15.8 56.5-12 1.9 3.8-22.5 21.4-48 31.8z" class="cls-220" opacity=".4"/>
    <path d="M1055.1 213.6c-25.4 10.4-61.4 17.4-62.5 14.6-1.5-4 28.4-23 54-34.3 25.1-11 54.3-15.7 56.3-12 1.9 3.8-22.4 21.3-47.8 31.7z" class="cls-222" opacity=".4"/>
    <path d="M1055.1 213.5c-25.4 10.4-61.2 17.4-62.3 14.6-1.5-4 28.3-23 53.8-34.2 25-11 54.2-15.7 56.1-11.8 1.9 3.6-22.3 21-47.6 31.4z" class="cls-207" opacity=".4"/>
    <path d="M1055 213.5c-25.2 10.3-61 17.3-62 14.5-1.5-4 28.2-23 53.7-34 25-11 54-15.7 55.9-12 1.8 3.7-22.3 21.2-47.6 31.5z" class="cls-221" opacity=".4"/>
    <path d="M1055 213.4c-25.2 10.3-60.8 17.3-61.8 14.5-1.5-4 28-22.8 53.5-34 24.9-11 53.8-15.6 55.7-11.8 1.8 3.7-22.2 21-47.4 31.3z" class="cls-223" opacity=".4"/>
    <path d="M1055 213.3c-25.1 10.3-60.6 17.2-61.6 14.5-1.5-4 28-22.8 53.3-34 24.8-10.8 53.6-15.4 55.5-11.6 1.8 3.6-22.1 20.9-47.2 31z" class="cls-210" opacity=".4"/>
    <path d="M1054.9 213.3c-25 10.2-60.3 17-61.3 14.3-1.5-3.8 27.8-22.6 53-33.7 24.8-10.8 53.5-15.5 55.4-11.7 1.9 3.6-22 20.8-47 31h-.1z" class="cls-209" opacity=".4"/>
    <path d="M1054.9 213.2c-25 10.2-60.1 17-61.2 14.3-1.4-3.8 27.8-22.5 53-33.5 24.7-11 53.2-15.5 55.2-11.7 1.8 3.6-22 20.7-47 30.9z" class="cls-208" opacity=".4"/>
    <path d="M1054.9 213c-25 10.3-60 17-61 14.4-1.4-3.8 27.7-22.4 52.8-33.4 24.6-10.8 53-15.5 55-11.7 1.8 3.6-22 20.7-46.8 30.8z" class="cls-211" opacity=".4"/>
    <path d="M1054.8 213c-24.8 10.2-59.6 17-60.7 14.3-1.4-3.8 27.5-22.3 52.6-33.3 24.6-10.8 53-15.4 54.8-11.7 1.8 3.6-21.8 20.6-46.7 30.8v-.1z" class="cls-215" opacity=".4"/>
    <path d="M1054.8 213c-24.8 10-59.4 17-60.5 14.2-1.4-3.8 27.4-22.3 52.4-33.2 24.5-10.7 52.7-15.4 54.6-11.6 1.8 3.5-21.7 20.5-46.5 30.6z" class="cls-214" opacity=".4"/>
    <path d="M1054.8 213c-24.7 10-59.2 16.8-60.3 14-1.4-3.7 27.3-22 52.2-33 24.4-10.7 52.6-15.3 54.5-11.6 1.8 3.6-21.7 20.4-46.4 30.5z" class="cls-213" opacity=".4"/>
    <path d="M1054.8 212.9c-24.7 10-59 16.8-60.1 14-1.4-3.7 27.2-22 52-33 24.4-10.6 52.4-15.2 54.3-11.4 1.8 3.5-21.6 20.3-46.2 30.4z" class="cls-212" opacity=".4"/>
    <path d="M1054.7 212.8c-24.5 10-58.8 16.8-59.8 14-1.5-3.7 27-22 51.8-32.8 24.3-10.6 52.2-15.2 54.1-11.5 1.8 3.5-21.5 20.2-46 30.3h-.1z" class="cls-202" opacity=".4"/>
    <path d="M1054.7 212.7c-24.5 10-58.6 16.8-59.6 14-1.5-3.7 27-21.8 51.6-32.7 24.2-10.6 52-15.1 54-11.4 1.7 3.5-21.5 20-46 30z" class="cls-201" opacity=".4"/>
    <path d="M1054.7 212.6c-24.5 10-58.4 16.7-59.5 14-1.4-3.7 26.9-21.8 51.5-32.6 24.2-10.5 51.9-15.1 53.8-11.4 1.7 3.5-21.4 20-45.8 30z" class="cls-200" opacity=".4"/>
    <path d="M1054.6 212.6c-24.3 10-58.1 16.6-59.2 13.9-1.4-3.7 26.7-21.7 51.3-32.4 24.1-10.6 51.7-15.2 53.6-11.5 1.7 3.5-21.3 20-45.7 30z" class="cls-203" opacity=".4"/>
    <path d="M1054.6 212.5c-24.3 10-58 16.6-59 13.9-1.4-3.7 26.6-21.6 51.1-32.3 24-10.6 51.5-15.1 53.4-11.4 1.8 3.5-21.2 19.9-45.5 29.8z" class="cls-206" opacity=".4"/>
    <path d="M1054.6 212.4c-24.3 10-57.8 16.6-58.8 13.9-1.4-3.7 26.5-21.6 51-32.2 23.9-10.5 51.3-15 53.1-11.4 1.8 3.5-21.1 19.8-45.3 29.7z" class="cls-194" opacity=".4"/>
    <path d="M1054.5 212.4c-24.1 9.8-57.5 16.4-58.5 13.7-1.4-3.6 26.4-21.4 50.7-32 24-10.5 51.2-15 53-11.4 1.8 3.5-21 19.8-45.2 29.7z" class="cls-205" opacity=".4"/>
    <path d="M1054.5 212.3c-24 9.8-57.3 16.4-58.3 13.7-1.4-3.6 26.3-21.3 50.5-32 23.9-10.3 51-14.8 52.9-11.2 1.7 3.4-21 19.7-45 29.5h-.1z" class="cls-204" opacity=".4"/>
    <path d="M1054.5 212.2c-24 9.9-57.1 16.4-58.1 13.7-1.4-3.6 26.1-21.2 50.3-31.8 23.8-10.4 50.9-15 52.7-11.3 1.7 3.5-20.9 19.6-45 29.4h.1z" class="cls-196" opacity=".4"/>
    <path d="M1054.5 212.2c-24 9.8-57 16.3-58 13.6-1.3-3.6 26.1-21.1 50.2-31.7 23.7-10.3 50.7-14.8 52.5-11.2 1.7 3.4-20.8 19.5-44.8 29.3h.1z" class="cls-195" opacity=".5"/>
    <path d="M1054.4 212c-23.9 9.9-56.6 16.4-57.7 13.7-1.4-3.6 26-21 50-31.6 23.7-10.3 50.5-14.8 52.3-11.2 1.8 3.4-20.7 19.4-44.6 29.2z" class="cls-193" opacity=".5"/>
    <path d="M1054.3 212c-23.7 9.8-56.3 16.2-57.4 13.6-1.4-3.6 25.8-21 49.8-31.5 23.6-10.3 50.4-14.7 52.2-11.2 1.7 3.5-20.7 19.4-44.5 29h-.1z" class="cls-192" opacity=".5"/>
    <path d="M1054.3 212c-23.7 9.7-56.2 16-57.2 13.4-1.4-3.5 25.7-20.8 49.6-31.3 23.5-10.2 50.2-14.7 52-11.1 1.7 3.4-20.6 19.3-44.3 29h-.1z" class="cls-198" opacity=".5"/>
    <path d="M1054.3 211.9c-23.7 9.7-56 16-57 13.4-1.4-3.5 25.6-20.7 49.4-31.2 23.5-10.2 50-14.6 51.8-11 1.7 3.3-20.5 19-44.2 28.8z" class="cls-102" opacity=".5"/>
    <path d="M1054.3 211.8c-23.6 9.7-55.8 16-56.8 13.4-1.4-3.5 25.5-20.7 49.3-31 23.3-10.2 49.8-14.7 51.6-11.1 1.6 3.3-20.5 19-44.1 28.7z" class="cls-197" opacity=".5"/>
    <path d="M1054.3 211.8c-23.6 9.6-55.6 16-56.6 13.3-1.4-3.6 25.4-20.6 49-31 23.4-10 49.7-14.5 51.5-11 1.7 3.4-20.4 19-44 28.7h.1z" class="cls-199" opacity=".5"/>
    <path d="M1054.3 211.7c-23.5 9.6-55.4 16-56.4 13.3-1.4-3.5 25.2-20.5 48.9-30.8 23.2-10.1 49.4-14.6 51.2-11 1.7 3.3-20.3 18.9-43.8 28.5h.1z" class="cls-103" opacity=".5"/>
    <path d="M1054.3 211.6c-23.5 9.6-55.2 16-56.2 13.3-1.4-3.5 25.1-20.4 48.7-30.7 23.1-10.1 49.3-14.5 51-11 1.7 3.3-20.2 18.9-43.6 28.4h.1z" class="cls-106" opacity=".5"/>
    <path d="M1054.2 211.6c-23.4 9.5-55 15.8-56 13.2-1.3-3.6 25-20.4 48.6-30.6 23-10 49.1-14.5 50.8-11 1.7 3.4-20 18.8-43.4 28.3z" class="cls-101" opacity=".5"/>
    <path d="M1054.1 211.5c-23.2 9.5-54.7 15.8-55.7 13-1.3-3.4 25-20.1 48.4-30.3 23-10 49-14.4 50.7-11 1.6 3.4-20 18.8-43.4 28.3z" class="cls-104" opacity=".5"/>
    <path d="M1054.1 211.4c-23.2 9.5-54.5 15.8-55.5 13-1.3-3.4 24.8-20 48.2-30.2 23-10 48.8-14.4 50.5-11 1.6 3.4-20 18.7-43.2 28.2z" class="cls-107" opacity=".5"/>
    <path d="M1054.1 211.4c-23.1 9.4-54.3 15.6-55.3 13-1.3-3.5 24.7-20 48-30.2 22.9-10 48.6-14.3 50.3-11 1.7 3.5-19.9 18.7-43 28v.2z" class="cls-87" opacity=".5"/>
    <path d="M1054.1 211.3c-23.1 9.4-54.1 15.6-55.1 13-1.3-3.5 24.6-20 47.8-30 22.8-10 48.4-14.4 50.2-11 1.6 3.4-19.9 18.6-43 28h.1z" class="cls-105" opacity=".5"/>
    <path d="M1054 211.2c-23 9.4-53.8 15.6-54.8 13-1.3-3.5 24.4-20 47.6-30 22.8-9.8 48.3-14.2 50-10.8 1.6 3.3-19.8 18.4-42.8 27.8z" class="cls-108" opacity=".5"/>
    <path d="M1054 211c-23 9.5-53.6 15.7-54.6 13-1.4-3.4 24.3-19.7 47.4-29.7 22.7-10 48.1-14.3 49.8-10.8 1.6 3.2-19.7 18.3-42.6 27.6z" class="cls-92" opacity=".5"/>
    <path d="M1054 211c-22.9 9.4-53.4 15.5-54.4 13-1.4-3.5 24.2-19.7 47.2-29.7 22.6-10 48-14.2 49.6-10.8 1.6 3.3-19.6 18.2-42.4 27.6v-.1z" class="cls-84" opacity=".5"/>
    <path d="M1053.9 211c-22.8 9.3-53.1 15.4-54.2 12.8-1.3-3.4 24.2-19.5 47-29.5 22.7-9.8 47.8-14.2 49.5-10.8 1.6 3.3-19.5 18.2-42.3 27.5z" class="cls-85" opacity=".5"/>
    <path d="M1053.9 211c-22.7 9.2-53 15.3-54 12.7-1.3-3.4 24-19.4 46.9-29.4 22.5-9.8 47.6-14.1 49.3-10.7 1.6 3.2-19.5 18-42.2 27.4z" class="cls-86" opacity=".5"/>
    <path d="M1053.9 210.9c-22.7 9.2-52.8 15.3-53.8 12.7-1.3-3.4 24-19.4 46.7-29.3 22.4-9.7 47.4-14 49.1-10.7 1.6 3.3-19.4 18-42 27.3z" class="cls-88" opacity=".5"/>
    <path d="M1053.8 210.8c-22.5 9.2-52.5 15.3-53.5 12.7-1.3-3.4 23.8-19.3 46.5-29.2 22.4-9.7 47.3-14 49-10.6 1.5 3.2-19.4 17.9-42 27z" class="cls-89" opacity=".5"/>
    <path d="M1053.8 210.7c-22.5 9.2-52.3 15.3-53.3 12.7-1.3-3.4 23.7-19.2 46.3-29 22.3-9.8 47.1-14 48.7-10.7 1.6 3.2-19.2 17.8-41.7 27z" class="cls-91" opacity=".5"/>
    <path d="M1053.8 210.7c-22.5 9-52.1 15-53.1 12.6-1.3-3.4 23.5-19.1 46.1-29 22.3-9.6 47-14 48.6-10.6 1.6 3.3-19.2 17.8-41.6 27z" class="cls-90" opacity=".5"/>
    <path d="M1053.8 210.6c-22.4 9-52 15-53 12.6-1.2-3.4 23.5-19 46-28.8 22.2-9.7 46.7-14 48.4-10.6 1.6 3.2-19 17.7-41.5 26.8h.1z" class="cls-100" opacity=".5"/>
    <path d="M1053.7 210.5c-22.3 9-51.7 15-52.6 12.5-1.3-3.3 23.3-19 45.7-28.6 22.1-9.6 46.6-14 48.2-10.6 1.6 3.2-19 17.6-41.3 26.7z" class="cls-93" opacity=".5"/>
    <path d="M1053.7 210.5c-22.3 9-51.5 15-52.5 12.4-1.2-3.3 23.2-18.8 45.6-28.5 22-9.6 46.4-13.8 48-10.5 1.6 3-18.9 17.5-41.1 26.6z" class="cls-94" opacity=".6"/>
    <path d="M1053.6 210.4c-22.1 9-51.2 15-52.2 12.4-1.3-3.3 23.1-18.8 45.4-28.4 22-9.5 46.2-13.8 47.9-10.5 1.5 3.2-18.9 17.4-41 26.5h-.1z" class="cls-95" opacity=".6"/>
    <path d="M1053.6 210.3c-22 9-51 15-52 12.4-1.3-3.3 23-18.7 45.2-28.3 22-9.5 46-13.7 47.7-10.4 1.6 3-18.8 17.3-40.9 26.3z" class="cls-96" opacity=".6"/>
    <path d="M1053.6 210.3c-22 9-50.8 14.8-51.8 12.3-1.3-3.3 22.9-18.6 45-28.2 21.9-9.5 46-13.7 47.5-10.4 1.6 3-18.7 17.2-40.7 26.2z" class="cls-97" opacity=".6"/>
    <path d="M1053.6 210.2c-22 9-50.6 14.8-51.6 12.3-1.3-3.3 22.7-18.5 44.8-28 21.8-9.5 45.7-13.7 47.3-10.5 1.6 3.2-18.6 17.2-40.5 26.2z" class="cls-99" opacity=".6"/>
    <path d="M1053.5 210c-21.9 9-50.3 14.9-51.3 12.3-1.3-3.2 22.6-18.3 44.7-28 21.7-9.3 45.5-13.5 47-10.2 1.6 3-18.5 17-40.4 26z" class="cls-98" opacity=".6"/>
    <path d="M1053.5 210c-21.8 9-50.1 14.8-51.1 12.2-1.3-3.2 22.5-18.2 44.5-27.8 21.6-9.3 45.3-13.5 46.9-10.3 1.5 3-18.5 17-40.3 26v-.1z" class="cls-76" opacity=".6"/>
    <path d="M1053.5 210c-21.8 8.9-50 14.6-51 12-1.2-3.1 22.5-18.1 44.4-27.6 21.5-9.3 45.1-13.5 46.7-10.2 1.5 3-18.4 16.9-40.1 25.8z" class="cls-70" opacity=".6"/>
    <path d="M1053.4 210c-21.6 8.8-49.7 14.5-50.7 12-1.2-3.2 22.3-18.1 44.2-27.5 21.5-9.3 45-13.5 46.5-10.3 1.5 3-18.3 16.9-40 25.7z" class="cls-72" opacity=".6"/>
    <path d="M1053.4 209.8c-21.6 8.9-49.5 14.6-50.5 12-1.2-3.1 22.2-18 44-27.3 21.4-9.3 44.8-13.5 46.4-10.3 1.5 3-18.3 16.8-39.9 25.6z" class="cls-71" opacity=".6"/>
    <path d="M1053.3 209.8c-21.5 8.8-49.2 14.5-50.2 12-1.2-3.3 22-18 43.8-27.3 21.3-9.3 44.6-13.4 46.2-10.3 1.5 3-18.2 16.8-39.7 25.6h-.1z" class="cls-73" opacity=".6"/>
    <path d="M1053.3 209.7c-21.4 8.8-49 14.5-50 12-1.2-3.2 22-18 43.6-27.2 21.3-9.2 44.5-13.4 46-10.2 1.5 3-18 16.6-39.6 25.4z" class="cls-74" opacity=".6"/>
    <path d="M1053.3 209.6c-21.4 8.8-48.8 14.4-49.8 12-1.2-3.2 21.8-17.8 43.4-27.1 21.2-9.2 44.3-13.3 45.8-10.2 1.5 3-18 16.6-39.4 25.3z" class="cls-75" opacity=".6"/>
    <path d="M1053.3 209.6c-21.4 8.7-48.6 14.3-49.6 11.8-1.2-3.1 21.7-17.6 43.2-27 21.2-9 44.1-13.2 45.7-10 1.4 3-18 16.4-39.3 25.2z" class="cls-83" opacity=".6"/>
    <path d="M1053.3 209.5c-21.3 8.7-48.5 14.3-49.4 11.8-1.3-3.2 21.6-17.5 43-26.8 21-9 44-13.2 45.5-10 1.5 3-17.9 16.3-39.1 25z" class="cls-77" opacity=".6"/>
    <path d="M1053.3 209.4c-21.3 8.7-48.3 14.3-49.2 11.8-1.3-3.2 21.5-17.5 42.8-26.7 21-9 43.8-13.2 45.3-10 1.5 3-17.8 16.3-39 25l.1-.1z" class="cls-78" opacity=".6"/>
    <path d="M1053.2 209.4c-21.1 8.6-48 14-49 11.7-1.2-3.2 21.4-17.4 42.7-26.6 21-9 43.6-13.1 45.1-10 1.5 3-17.7 16.2-38.8 24.9z" class="cls-79" opacity=".6"/>
    <path d="M1053.2 209.3c-21.1 8.6-47.8 14-48.8 11.7-1.2-3.1 21.3-17.3 42.5-26.4 20.9-9 43.5-13.1 45-10 1.4 3-17.7 16-38.7 24.7z" class="cls-227" opacity=".6"/>
    <path d="M1053.1 209.2c-21 8.6-47.5 14-48.5 11.7-1.2-3.2 21.2-17.2 42.3-26.3 20.8-9 43.3-13.1 44.8-10 1.4 3-17.6 16-38.6 24.6z" class="cls-81" opacity=".6"/>
    <path d="M1053.1 209.2c-21 8.5-47.3 14-48.3 11.5-1.2-3 21-17 42.1-26.1 20.8-9 43.1-13 44.6-10 1.4 3-17.5 16-38.4 24.6z" class="cls-82" opacity=".6"/>
    <path d="M1053.1 209c-20.9 8.6-47.1 14-48.1 11.6-1.2-3 21-17 42-26 20.6-9 42.9-13 44.3-10 1.5 3-17.4 16-38.2 24.5v-.1z" class="cls-80" opacity=".6"/>
    <path d="M1053 209c-20.8 8.5-46.9 14-47.8 11.5-1.2-3 20.8-17 41.7-26 20.7-8.8 42.8-13 44.3-9.8 1.4 3-17.4 15.8-38.2 24.3z" class="cls-225" opacity=".6"/>
    <path d="M1053 209c-20.7 8.4-46.7 13.8-47.6 11.4-1.2-3 20.7-16.8 41.5-25.8 20.6-8.8 42.6-13 44-10 1.5 3-17.2 15.9-37.9 24.4z" class="cls-230" opacity=".6"/>
    <path d="M1053 208.9c-20.7 8.4-46.5 13.8-47.4 11.4-1.2-3 20.6-16.8 41.3-25.7 20.5-8.8 42.5-12.8 44-9.8 1.3 3-17.2 15.6-38 24h.1z" class="cls-226" opacity=".6"/>
    <path d="M1053 208.8c-20.6 8.4-46.3 13.8-47.2 11.4-1.2-3 20.4-16.7 41.1-25.6 20.5-8.8 42.3-12.8 43.7-9.8 1.4 3-17 15.6-37.6 24z" class="cls-224" opacity=".6"/>
    <path d="M1052.9 208.8c-20.5 8.3-46 13.7-47 11.2-1.2-3 20.4-16.5 41-25.4 20.4-8.7 42.1-12.7 43.6-9.7 1.3 2.9-17 15.5-37.6 23.8z" class="cls-228" opacity=".7"/>
    <path d="M1052.9 208.7c-20.5 8.3-45.8 13.6-46.8 11.2-1.2-3 20.3-16.4 40.8-25.3 20.3-8.7 42-12.7 43.4-9.7 1.4 2.9-17 15.4-37.4 23.8z" class="cls-229" opacity=".7"/>
    <path d="M1052.9 208.6c-20.4 8.3-45.6 13.6-46.6 11.2-1.2-3 20.1-16.3 40.6-25.1 20.3-8.7 41.8-12.7 43.2-9.7 1.4 2.8-16.9 15.3-37.2 23.6z" class="cls-231" opacity=".7"/>
    <path d="M1052.8 208.5c-20.3 8.3-45.4 13.6-46.3 11.2-1.2-3 20-16.3 40.5-25 20.1-8.7 41.5-12.7 43-9.7 1.3 2.9-16.8 15.2-37.2 23.5z" class="cls-232" opacity=".7"/>
    <path d="M1052.8 208.5c-20.3 8.2-45.2 13.5-46.1 11-1.2-3 19.9-16 40.3-24.8 20-8.6 41.4-12.6 42.8-9.7 1.3 2.9-16.7 15.2-37 23.5z" class="cls-233" opacity=".7"/>
    <path d="M1052.8 208.4c-20.2 8.2-45 13.5-46 11-1-3 19.9-16 40.2-24.7 20-8.6 41.2-12.6 42.6-9.6 1.4 2.8-16.6 15-36.8 23.3z" class="cls-234" opacity=".7"/>
    <path d="M1052.7 208.3c-20 8.2-44.7 13.4-45.7 11-1.1-3 19.7-16 40-24.6 20-8.6 41-12.5 42.4-9.6 1.4 2.9-16.6 15-36.7 23.2z" class="cls-235" opacity=".7"/>
    <path d="M1052.7 208.3c-20 8.2-44.5 13.3-45.5 11-1.1-3 19.6-16 39.7-24.6 20-8.5 41-12.5 42.3-9.5 1.4 2.8-16.5 14.9-36.5 23z" class="cls-236" opacity=".7"/>
    <path d="M1052.7 208.2c-20 8.2-44.3 13.3-45.3 11-1.1-3 19.5-16 39.6-24.5 19.8-8.5 40.7-12.4 42-9.5 1.4 2.8-16.4 14.8-36.3 23z" class="cls-159" opacity=".7"/>
    <path d="M1052.6 208c-19.9 8.3-44 13.4-45 11-1.1-3 19.4-15.7 39.4-24.3 19.7-8.4 40.5-12.4 41.9-9.5 1.3 2.8-16.3 14.8-36.2 23l-.1-.1z" class="cls-67" opacity=".7"/>
    <path d="M1052.6 208c-19.8 8.2-43.9 13.3-44.8 10.9-1.1-3 19.2-15.6 39.2-24.2 19.7-8.4 40.3-12.3 41.7-9.4 1.3 2.8-16.3 14.7-36 22.8l-.1-.1z" class="cls-68" opacity=".7"/>
    <path d="M1052.6 208c-19.8 8-43.7 13-44.6 10.8-1.1-3 19.1-15.6 39-24 19.6-8.5 40.2-12.4 41.5-9.5 1.3 2.8-16.2 14.6-36 22.7h.1z" class="cls-69" opacity=".7"/>
    <path d="M1052.6 208c-19.7 8-43.5 13-44.4 10.7-1.1-3 19-15.5 38.8-24 19.6-8.3 40-12.2 41.4-9.3 1.3 2.7-16.1 14.5-35.8 22.5z" class="cls-163" opacity=".7"/>
    <path d="M1052.5 207.9c-19.6 8-43.2 13-44.1 10.6-1.1-2.8 18.9-15.3 38.6-23.7 19.5-8.4 39.8-12.3 41.2-9.4 1.3 2.8-16 14.4-35.7 22.5z" class="cls-156" opacity=".7"/>
    <path d="M1052.5 207.8c-19.6 8-43 13-44 10.6-1-2.8 18.8-15.2 38.5-23.6 19.4-8.3 39.7-12.2 41-9.4 1.3 2.8-16 14.4-35.5 22.4z" class="cls-157" opacity=".7"/>
    <path d="M1052.5 207.7c-19.5 8-42.8 13-43.7 10.6-1.2-2.8 18.6-15.1 38.2-23.5 19.4-8.3 39.5-12.2 40.8-9.3 1.3 2.7-15.8 14.3-35.3 22.2z" class="cls-158" opacity=".7"/>
    <path d="M1052.4 207.7c-19.4 7.9-42.5 12.8-43.5 10.5-1-2.8 18.6-15 38.1-23.4 19.3-8.2 39.3-12.1 40.7-9.3 1.3 2.8-15.8 14.2-35.3 22.2z" class="cls-167" opacity=".7"/>
    <path d="M1052.4 207.6c-19.4 7.9-42.4 12.8-43.3 10.5-1-2.8 18.4-15 37.9-23.3 19.2-8.2 39.2-12 40.5-9.2 1.3 2.7-15.7 14-35.1 22z" class="cls-160" opacity=".7"/>
    <path d="M1052.3 207.5c-19.2 7.9-42 12.8-43 10.5-1-2.8 18.3-15 37.7-23.2 19.2-8.1 39-12 40.3-9.2 1.3 2.7-15.6 14-35 22v-.1z" class="cls-161" opacity=".7"/>
    <path d="M1052.3 207.4c-19.2 7.9-41.9 12.8-42.8 10.4-1.1-2.8 18.2-14.7 37.5-23 19.1-8.1 38.8-12 40.1-9.2 1.3 2.7-15.5 14-34.8 21.9v-.1z" class="cls-162" opacity=".7"/>
    <path d="M1052.3 207.4c-19.1 7.8-41.7 12.6-42.6 10.3-1.1-2.8 18-14.7 37.3-23 19-8 38.7-12 40-9 1.2 2.7-15.5 13.9-34.7 21.7z" class="cls-170" opacity=".7"/>
    <path d="M1052.3 207.3c-19.1 7.8-41.5 12.6-42.4 10.3-1.1-2.8 18-14.6 37.1-22.7 19-8.1 38.5-12 39.8-9.2 1.2 2.7-15.4 13.8-34.5 21.6z" class="cls-164" opacity=".7"/>
    <path d="M1052.3 207.2c-19 7.8-41.3 12.6-42.2 10.3-1.1-2.8 17.8-14.5 37-22.6 18.8-8 38.2-12 39.5-9.1 1.3 2.6-15.3 13.7-34.4 21.4h.1z" class="cls-165" opacity=".7"/>
    <path d="M1052.3 207.2c-19 7.7-41.1 12.5-42 10.2-1.1-2.8 17.7-14.4 36.7-22.5 18.8-8 38.1-11.8 39.4-9.1 1.3 2.7-15.2 13.6-34.2 21.4h.1z" class="cls-166" opacity=".7"/>
    <path d="M1052.2 207c-18.9 7.8-40.9 12.6-41.8 10.3-1-2.8 17.7-14.3 36.6-22.4 18.8-8 38-11.8 39.3-9 1.2 2.6-15.2 13.5-34.1 21.2z" class="cls-143" opacity=".7"/>
    <path d="M1052.1 207c-18.8 7.7-40.6 12.4-41.5 10.2-1-2.8 17.5-14.3 36.4-22.3 18.7-8 37.8-11.7 39-9 1.3 2.6-15 13.5-33.9 21z" class="cls-168" opacity=".8"/>
    <path d="M1052.1 207c-18.7 7.6-40.4 12.3-41.3 10-1-2.7 17.4-14 36.2-22 18.7-8 37.6-11.8 39-9 1.1 2.5-15.1 13.3-33.9 21z" class="cls-169" opacity=".8"/>
    <path d="M1052.1 206.9c-18.7 7.6-40.2 12.3-41.1 10-1-2.7 17.3-14 36-22 18.6-8 37.5-11.6 38.7-9 1.2 2.7-15 13.4-33.6 21z" class="cls-140" opacity=".8"/>
    <path d="M1052.1 206.8c-18.6 7.6-40 12.3-41 10-1-2.7 17.3-14 36-22 18.4-7.7 37.2-11.5 38.4-9 1.3 2.8-14.8 13.4-33.4 21z" class="cls-147" opacity=".8"/>
    <path d="M1052 206.8c-18.5 7.5-39.7 12.2-40.6 9.9-1-2.7 17-14 35.7-21.8 18.4-7.8 37-11.5 38.3-9 1.2 2.7-14.8 13.3-33.4 20.9z" class="cls-142" opacity=".8"/>
    <path d="M1052 206.7c-18.5 7.5-39.5 12.2-40.4 9.9-1-2.7 17-13.8 35.5-21.7 18.3-7.7 36.9-11.5 38.1-8.8 1.2 2.6-14.7 13-33.2 20.6z" class="cls-141" opacity=".8"/>
    <path d="M1052 206.6c-18.4 7.5-39.3 12-40.2 9.9-1.1-2.7 16.8-13.7 35.3-21.5 18.3-7.8 36.7-11.5 38-9 1.1 2.7-14.7 13-33.1 20.6z" class="cls-144" opacity=".8"/>
    <path d="M1051.9 206.6c-18.3 7.5-39 12-40 9.8-1-2.7 16.8-13.6 35.2-21.4 18.2-7.7 36.6-11.5 37.8-8.8 1.1 2.5-14.6 12.9-33 20.4z" class="cls-151" opacity=".8"/>
    <path d="M1051.9 206.5c-18.3 7.5-38.9 12-39.8 9.7-1-2.6 16.6-13.5 35-21.2 18.1-7.7 36.4-11.4 37.6-8.8 1.1 2.6-14.5 12.8-32.8 20.3z" class="cls-146" opacity=".8"/>
    <path d="M1051.9 206.4c-18.2 7.4-38.7 12-39.6 9.7-1-2.6 16.5-13.4 34.8-21.1 18-7.7 36.2-11.4 37.4-8.8 1.2 2.6-14.4 12.8-32.6 20.2z" class="cls-145" opacity=".8"/>
    <path d="M1051.8 206.4c-18 7.4-38.4 11.9-39.3 9.6-1-2.6 16.4-13.3 34.6-21 18-7.6 36-11.3 37.2-8.7 1.2 2.5-14.3 12.6-32.5 20z" class="cls-148" opacity=".8"/>
    <path d="M1051.8 206.3c-18 7.4-38.2 11.8-39.1 9.6-1-2.6 16.3-13.2 34.4-21 18-7.5 35.9-11.2 37-8.6 1.2 2.5-14.2 12.6-32.3 20z" class="cls-155" opacity=".8"/>
    <path d="M1051.8 206.2c-18 7.4-38 11.8-39 9.6-1-2.6 16.2-13.1 34.3-20.8 17.9-7.5 35.7-11.2 36.9-8.6 1.1 2.5-14.2 12.5-32.2 19.8z" class="cls-150" opacity=".8"/>
    <path d="M1051.8 206.2c-18 7.3-37.9 11.7-38.7 9.5-1-2.6 16-13 34-20.7 17.8-7.5 35.5-11.2 36.7-8.6 1.1 2.5-14.1 12.4-32 19.8z" class="cls-149" opacity=".8"/>
    <path d="M1051.7 206c-17.8 7.4-37.6 11.8-38.5 9.5-1-2.5 16-13 33.9-20.5 17.7-7.5 35.4-11.1 36.5-8.6 1.1 2.5-14 12.4-31.9 19.7v-.1z" class="cls-152" opacity=".8"/>
    <path d="M1051.7 206c-17.8 7.3-37.4 11.6-38.3 9.4-1-2.5 15.9-12.8 33.7-20.3 17.7-7.5 35.2-11.2 36.3-8.6 1.2 2.5-14 12.2-31.7 19.5z" class="cls-126" opacity=".8"/>
    <path d="M1051.7 206c-17.8 7.2-37.2 11.5-38 9.3-1-2.5 15.6-12.7 33.4-20.2 17.6-7.5 35-11.1 36.2-8.6 1.1 2.5-14 12.2-31.6 19.4z" class="cls-154" opacity=".8"/>
    <path d="M1051.6 205.9c-17.6 7.2-37 11.5-37.8 9.3-1-2.5 15.6-12.7 33.3-20.1 17.6-7.4 34.9-11 36-8.5 1.1 2.4-13.8 12-31.5 19.3z" class="cls-153" opacity=".8"/>
    <path d="M1051.6 205.8c-17.6 7.2-36.7 11.5-37.6 9.3-1-2.5 15.5-12.6 33.1-20 17.5-7.4 34.7-11 35.8-8.5 1.1 2.5-13.7 12-31.3 19.2z" class="cls-123" opacity=".8"/>
    <path d="M1051.6 205.7c-17.5 7.2-36.5 11.5-37.4 9.3-1-2.5 15.3-12.5 33-20 17.3-7.2 34.4-11 35.6-8.4 1 2.5-13.7 12-31.2 19z" class="cls-131" opacity=".8"/>
    <path d="M1051.5 205.7c-17.4 7-36.3 11.3-37.1 9-1-2.3 15.2-12.2 32.7-19.6 17.4-7.3 34.3-11 35.5-8.4 1 2.4-13.6 11.8-31 19h-.1z" class="cls-125" opacity=".8"/>
    <path d="M1051.5 205.6c-17.4 7-36 11.3-37 9-1-2.3 15.2-12.2 32.6-19.5 17.3-7.3 34.2-11 35.3-8.4 1 2.4-13.5 11.8-30.9 18.9z" class="cls-124" opacity=".8"/>
    <path d="M1051.5 205.5c-17.3 7-35.9 11.3-36.7 9-1-2.3 15-12.1 32.3-19.4 17.2-7.2 34-10.8 35.1-8.3 1.1 2.4-13.4 11.7-30.7 18.7z" class="cls-128" opacity=".8"/>
    <path d="M1051.5 205.5c-17.3 7-35.7 11.2-36.6 9-1-2.4 15-12 32.2-19.4 17.2-7.2 33.9-10.7 35-8.3 1 2.4-13.4 11.6-30.6 18.7z" class="cls-127" opacity=".8"/>
    <path d="M1051.4 205.4c-17.2 7-35.4 11.2-36.3 9-1-2.4 14.8-12 32-19.2 17.1-7.2 33.7-10.8 34.8-8.4 1 2.4-13.3 11.6-30.5 18.6z" class="cls-130" opacity=".8"/>
    <path d="M1051.3 205.3c-17 7-35.1 11-36 9-1-2.4 14.7-12 31.8-19.1 17-7.2 33.5-10.7 34.6-8.3 1 2.4-13.2 11.5-30.3 18.4h-.1z" class="cls-129" opacity=".8"/>
    <path d="M1051.3 205.3c-17 7-35 11-35.8 8.9-1-2.5 14.6-12 31.6-19s33.4-10.7 34.4-8.3c1 2.4-13.1 11.4-30.1 18.4h-.1z" class="cls-134" opacity=".8"/>
    <path d="M1051.3 205.2c-17 7-34.8 11-35.6 8.8-1-2.4 14.4-11.7 31.4-18.8 17-7.1 33.2-10.6 34.2-8.2 1.1 2.3-13 11.3-30 18.2z" class="cls-133" opacity=".8"/>
    <path d="M1051.3 205c-16.9 7-34.6 11-35.4 8.9-1-2.4 14.3-11.6 31.2-18.7 16.9-7 33-10.6 34-8.2 1.1 2.3-13 11.2-29.8 18z" class="cls-132" opacity=".9"/>
    <path d="M1051.3 205c-16.9 7-34.4 11-35.2 8.8-1-2.4 14.2-11.5 31-18.6 16.8-7 32.8-10.5 33.9-8.2 1 2.4-13 11.2-29.7 18z" class="cls-135" opacity=".9"/>
    <path d="M1051.3 205c-16.8 6.8-34.2 10.8-35 8.7-1-2.4 14-11.5 30.9-18.5 16.7-7 32.6-10.5 33.6-8.1 1 2.3-12.8 11-29.6 17.9h.1z" class="cls-138" opacity=".9"/>
    <path d="M1051.2 205c-16.7 6.7-34 10.7-34.8 8.6-1-2.4 14-11.4 30.8-18.4 16.6-7 32.4-10.4 33.4-8 1 2.2-12.7 11-29.4 17.7z" class="cls-137" opacity=".9"/>
    <path d="M1051.2 204.8c-16.7 6.8-33.7 10.8-34.6 8.7-1-2.4 13.9-11.3 30.6-18.3 16.5-7 32.2-10.4 33.3-8 1 2.3-12.7 10.9-29.3 17.7v-.1z" class="cls-136" opacity=".9"/>
    <path d="M1051.1 204.8c-16.5 6.7-33.4 10.7-34.3 8.5-1-2.3 13.8-11.1 30.4-18 16.5-7 32-10.4 33.1-8.1 1 2.3-12.6 10.8-29.1 17.6h-.1z" class="cls-139" opacity=".9"/>
    <path d="M1051.1 204.7c-16.5 6.7-33.3 10.7-34.1 8.5-1-2.3 13.7-11 30.2-18 16.4-6.8 31.9-10.3 33-8 1 2.3-12.6 10.8-29 17.5h-.1z" class="cls-109" opacity=".9"/>
    <path d="M1051.1 204.7c-16.4 6.7-33 10.5-34 8.4-.8-2.3 13.6-11 30-17.8 16.4-7 31.8-10.3 32.8-8 1 2.3-12.4 10.6-28.8 17.3z" class="cls-115" opacity=".9"/>
    <path d="M1051.1 204.6c-16.4 6.7-32.9 10.5-33.7 8.4-1-2.3 13.4-11 29.8-17.7 16.3-6.8 31.6-10.3 32.6-8 1 2.3-12.4 10.6-28.7 17.3z" class="cls-111" opacity=".9"/>
    <path d="M1051 204.5c-16.3 6.7-32.6 10.5-33.4 8.4-1-2.3 13.3-10.8 29.6-17.6 16.2-6.8 31.4-10.2 32.4-8 1 2.3-12.3 10.6-28.6 17.2z" class="cls-110" opacity=".9"/>
    <path d="M1051 204.4c-16.2 6.7-32.4 10.5-33.2 8.4-1-2.3 13.2-10.7 29.4-17.5 16.2-6.7 31.2-10.2 32.2-8 1 2.3-12.2 10.5-28.4 17z" class="cls-112" opacity=".9"/>
    <path d="M1051 204.4c-16.2 6.6-32.2 10.3-33 8.3-1-2.3 13-10.7 29.2-17.4 16-6.7 31-10.1 32-7.8 1 2.2-12.1 10.3-28.2 16.9z" class="cls-118" opacity=".9"/>
    <path d="M1050.9 204.3c-16 6.6-32 10.3-32.8 8.2-.9-2.2 13-10.5 29.1-17.2 16-6.6 30.9-10 31.9-7.8s-12.1 10.2-28.2 16.8z" class="cls-114" opacity=".9"/>
    <path d="M1050.9 204.2c-16 6.6-31.7 10.3-32.6 8.2-.9-2.2 12.9-10.4 29-17 15.9-6.7 30.6-10 31.6-8 1 2.3-12 10.3-28 16.8z" class="cls-113" opacity=".9"/>
    <path d="M1050.9 204.2c-16 6.5-31.6 10.2-32.4 8-.9-2.1 12.8-10.2 28.7-17 15.9-6.5 30.6-10 31.5-7.6 1 2.2-11.9 10-27.8 16.6z" class="cls-116" opacity=".9"/>
    <path d="M1050.8 204c-15.8 6.6-31.3 10.3-32.1 8.2-1-2.2 12.6-10.3 28.5-17 15.8-6.4 30.4-9.8 31.3-7.6 1 2.2-11.8 10-27.7 16.5z" class="cls-122" opacity=".9"/>
    <path d="M1050.8 204c-15.8 6.5-31.1 10.2-32 8-.8-2.1 12.6-10 28.4-16.6 15.8-6.6 30.2-10 31.2-7.8.9 2.2-11.8 10-27.6 16.4z" class="cls-117" opacity=".9"/>
    <path d="M1050.8 204c-15.8 6.4-31 10-31.7 8-1-2.2 12.4-10.1 28.1-16.6 15.7-6.5 30-10 31-7.7 1 2-11.7 9.8-27.4 16.3z" class="cls-120" opacity=".9"/>
    <path d="M1050.7 203.9c-15.6 6.4-30.6 10-31.5 8-.8-2.2 12.3-10 28-16.5 15.6-6.5 29.9-10 30.8-7.7 1 2.2-11.6 9.8-27.3 16.2z" class="cls-241" opacity=".9"/>
    <path d="M1050.7 203.8c-15.6 6.4-30.4 10-31.3 8-.8-2.2 12.2-10 27.8-16.4 15.6-6.4 29.7-9.8 30.6-7.6 1 2-11.5 9.7-27 16h-.1z" class="cls-121" opacity=".9"/>
    <path d="M1050.7 203.8c-15.5 6.3-30.2 9.9-31 7.8-1-2.1 12-9.8 27.5-16.2 15.5-6.4 29.5-9.7 30.4-7.6 1 2-11.4 9.6-27 16h.1z" class="cls-119" opacity=".9"/>
    <path d="M1050.6 203.7c-15.4 6.3-30 9.9-30.8 7.8-.9-2.1 12-9.7 27.4-16 15.5-6.5 29.4-9.8 30.3-7.7.9 2.2-11.4 9.6-26.8 15.9h-.1z" class="cls-239" opacity=".9"/>
    <path d="M1050.6 203.6c-15.4 6.3-29.8 9.8-30.6 7.8-.9-2.1 11.8-9.6 27.2-16 15.4-6.3 29.2-9.6 30.1-7.5 1 2-11.3 9.4-26.7 15.7z" class="cls-238" opacity=".9"/>
    <path d="M1050.6 203.6c-15.3 6.2-29.6 9.7-30.4 7.7-.9-2.1 11.7-9.5 27-16 15.3-6.2 29-9.5 30-7.4.8 2-11.3 9.4-26.6 15.6z" class="cls-242" opacity=".9"/>
    <path d="M1050.6 203.5c-15.3 6.2-29.4 9.7-30.2 7.7-.9-2.1 11.6-9.5 26.9-15.8 15.2-6.2 28.8-9.5 29.7-7.4.8 2-11.2 9.2-26.4 15.5z" class="cls-240" opacity=".9"/>
    <path d="M1050.5 203.4c-15.2 6.2-29.1 9.7-30 7.6-.8-2 11.6-9.3 26.8-15.5 15.1-6.3 28.6-9.6 29.5-7.5.9 2-11 9.2-26.3 15.4z" class="cls-244" opacity="1"/>
    <path d="M1050.5 203.3c-15.1 6.2-29 9.6-29.8 7.6-.8-2 11.4-9.2 26.5-15.4 15.1-6.2 28.5-9.5 29.4-7.5.9 2-11 9.2-26.1 15.4v-.1z" class="cls-250" opacity="1"/>
    <path d="M1050.5 146.5c-15 6.1-28.7 9.5-29.6 7.5-.8-2 11.3-9 26.4-15.3 15-6.2 28.3-9.5 29.1-7.4.9 2-10.9 9-26 15.2h.1z" class="cls-245" opacity="1"/>
    <path d="M1050.4 146.4c-15 6.1-28.5 9.5-29.3 7.5-.8-2 11.2-9 26.2-15.2 15-6.2 28.1-9.4 29-7.4.8 2-10.9 9-25.9 15.1z" class="cls-243" opacity="1"/>
    <path d="M1050.4 146.3c-14.9 6.1-28.3 9.5-29 7.5-1-2 11-9 25.9-15 14.9-6.2 28-9.5 28.8-7.4.8 2-10.8 8.8-25.7 15z" class="cls-248" opacity="1"/>
    <path d="M1050.3 146.2c-14.8 6.1-28 9.5-28.8 7.5-.8-2 11-8.9 25.8-15 14.8-6 27.8-9.3 28.6-7.3.9 2-10.7 8.8-25.5 15l-.1-.2z" class="cls-246" opacity="1"/>
    <path d="M1050.3 146.2c-14.7 6-27.8 9.3-28.6 7.3-.8-2 10.8-8.7 25.6-14.8 14.7-6 27.6-9.3 28.4-7.3.9 2-10.6 8.8-25.4 14.8z" class="cls-249" opacity="1"/>
    <path d="M1050.3 146.2c-14.7 6-27.6 9.2-28.4 7.2-.8-2 10.7-8.6 25.4-14.7 14.7-6 27.4-9.2 28.3-7.2.8 2-10.6 8.6-25.3 14.6v.1z" class="cls-247" opacity="1"/>
    <path d="M1050.3 146.1c-14.6 6-27.4 9.2-28.2 7.2-.8-2 10.6-8.6 25.2-14.6s27.3-9.2 28-7.2c.9 2-10.4 8.6-25 14.6z" class="cls-251" opacity="1"/>
    <path d="M1050.3 146c-14.6 6-27.2 9.2-28 7.2-.9-2 10.4-8.5 25-14.5 14.6-5.9 27.1-9 28-7 .7 2-10.5 8.3-25 14.3z" class="cls-237" opacity="1"/>
    <path d="M1050.3 146c-14.6 6-27 9.1-27.9 7.1-.8-2 10.4-8.4 24.9-14.3 14.5-6 27-9.2 27.7-7.2.8 2-10.3 8.4-24.8 14.3h.1z" class="cls-252"/>
    <path d="M1074.9 131.6c.8 2-10.3 8.4-24.7 14.3-14.4 6-26.8 9-27.6 7-.8-1.9 10.3-8.2 24.7-14 14.4-6 26.8-9.2 27.6-7.3z" class="cls-27"/>
  </g>
  <path fill="#002f81" d="M58.7 211.2h-46v17.3c0 14.9 9.9 20.4 27.3 20.4 13.3 0 24.4-2.2 24.4-2.2v10.6s-10.8 2.4-25.8 2.4c-26.7 0-38.6-11-38.6-31.5v-70.7h64.4v10.8H12.8v32.3h46v10.6h-.1zm35 10c0 11.7 2.9 28 24.1 28a55 55 0 0 0 21.5-4l1.8 10s-9.5 4.5-24.3 4.5c-25.9 0-35.7-16.2-35.7-40.8 0-23 8.8-40.7 33.2-40.7 23.1 0 30.6 14.3 30.6 31.2 0 3.8-.4 8-1.1 11.9H93.7zm39-13.1c0-9.7-2.8-19.6-18.4-19.6s-19.6 12.2-20.4 22.8h38.7l.1-3.2zm83.3.9c0-18.3-10.7-20.2-21.4-20.2s-18.3 2.7-18.3 2.7V258h-12.7v-73.8s13.2-6.1 31.4-6.1c22.2 0 33.6 8 33.6 31.7V258h-12.7v-49l.1-.1zm89.7 3.6c12 3.6 25.8 8.5 25.8 24.8 0 15.5-12.5 22.3-30.3 22.3a75.4 75.4 0 0 1-23.7-3.8l1.7-10.2s9.2 3.4 21 3.4c13.3 0 19.1-4.3 19.1-11.2 0-7.7-6.8-10.5-17.6-13.8-13.3-4.1-26.3-9-26.3-24.2 0-16.6 15.5-21.7 30.4-21.7 11.7 0 22 3 22 3l-2.1 10.2s-8.5-2.6-18.9-2.6c-12 0-19.3 3.7-19.3 10.8s7.4 10 18.2 13zm73.9 47c-7.5 0-13.5-1.5-17.6-2.7v30.7h-12.7V184.3s12.9-6.1 29.5-6.1c24 0 35.8 12.4 35.8 40.8s-12.2 40.7-35.1 40.7h.1zm-1-70.8c-8 0-13.8 1.6-16.6 2.6v55a49 49 0 0 0 16.6 2.7c17.7 0 23.5-10.3 23.5-30.1s-5.7-30.2-23.5-30.2zm65.2 32.5c0 11.6 2.8 28 24 28a55 55 0 0 0 21.5-4l1.8 10s-9.5 4.4-24.2 4.4c-26 0-35.7-16.2-35.7-40.8 0-23 8.8-40.7 33.1-40.7 23.1 0 30.7 14.3 30.7 31.2 0 3.8-.5 8-1.2 11.9h-50zm39-13.2c0-9.7-2.9-19.6-18.4-19.6s-19.6 12.2-20.5 22.8h38.7l.2-3.2zm43.5 50h-12.6V150.4h12.6V258zm56.6-78.4 23 68.5 23-68.5h12.8l-27 78.4h-17.6l-27-78.4h12.8zm117.5 36.5v-10.4c0-12.5-7-17-20-17s-22.2 4.6-22.2 4.6l-2.6-10c4.4-2 13.8-5.2 26.5-5.2 19.6 0 31 7.6 31 27.8v47.6s-12 6-31.1 6-31-6-31-22.3 13.3-22.7 32.4-22.7c6.2 0 12 .7 17 1.6zm0 31.2V226c-5-.8-11-1.3-16.2-1.3-11.6 0-20.5 2-20.5 12.7 0 10.2 8.2 12.4 18.6 12.4s18.1-2.5 18.1-2.5zm86.2-38.4c0-18.3-10.6-20.2-21.4-20.2s-18.3 2.7-18.3 2.7V258h-12.6v-73.8s13.2-6.1 31.3-6.1c22.3 0 33.6 8 33.6 31.7V258h-12.6v-49z" class="cls-254"/>
</svg>
