<svg xmlns="http://www.w3.org/2000/svg" viewBox="0 0 298 227" enable-background="new 0 0 298 227">
  <filter filterUnits="objectBoundingBox" height="103.8%" id="c" width="102.5%" x="-1.3%" y="-1.9%">
    <feGaussianBlur in="SourceGraphic" stdDeviation="1"/>
  </filter>
  <g transform="translate(24 58)">
    <defs>
      <filter id="a" filterUnits="userSpaceOnUse" x="7.4" y=".9" width="237.1" height="156.7">
        <feColorMatrix values="1 0 0 0 0 0 1 0 0 0 0 0 1 0 0 0 0 0 1 0"/>
      </filter>
    </defs>
    <mask maskUnits="userSpaceOnUse" x="7.4" y=".9" width="237.1" height="156.7" id="b">
      <path d="M248 168H.5V.9H248V168z" fill="#fff" filter="url(#a)"/>
    </mask>
    <g opacity=".2" mask="url(#b)" filter="url(#c)" enable-background="new">
      <path d="M219.7.9H32.2C18.5.9 7.4 13 7.4 27.9c0 7.5 2.8 14.5 7.3 19.4l93.8 102.3a23.6 23.6 0 0 0 17.5 7.9c6.3 0 12.7-2.6 17.5-7.9l93.8-102.3a28.9 28.9 0 0 0 7.3-19.4c-.1-14.9-11.2-27-24.9-27"/>
    </g>
    <defs>
      <filter id="d" filterUnits="userSpaceOnUse" x=".5" y=".9" width="247.5" height="149.7">
        <feColorMatrix values="1 0 0 0 0 0 1 0 0 0 0 0 1 0 0 0 0 0 1 0"/>
      </filter>
    </defs>
    <mask maskUnits="userSpaceOnUse" x=".5" y=".9" width="247.5" height="149.7" id="e">
      <path d="M248 168H.5V.9H248V168z" fill="#fff" filter="url(#d)"/>
    </mask>
    <path d="M222.1.9H26.3A25.8 25.8 0 0 0 .5 26.7c0 7.1 2.9 13.9 7.6 18.5L106 143c5 5.1 11.7 7.6 18.3 7.6 6.9 0 13.5-2.7 18.3-7.6l97.9-97.8A26 26 0 0 0 222.1.9" mask="url(#e)" fill="#fefefe"/>
  </g>
  <defs>
    <filter id="f" filterUnits="userSpaceOnUse" x="0" y=".2" width="297.4" height="43.7">
      <feColorMatrix values="1 0 0 0 0 0 1 0 0 0 0 0 1 0 0 0 0 0 1 0"/>
    </filter>
  </defs>
  <mask maskUnits="userSpaceOnUse" x="0" y=".2" width="297.4" height="43.7" id="g">
    <path d="M297.4 22.1V.2H0V44h297.4V22.1z" fill="#fff" filter="url(#f)"/>
  </mask>
  <path d="M290.6 12.3v23.4c0 1.6-.8 2.7-2.7 2.7-.9 0-1.6-.3-2.3-.6l-1.9 4.9c1.6.9 3.6 1.2 5.4 1.2 5.5 0 8.3-3.5 8.3-8.7v-23l-6.8.1zm3.4-5.4c1.9 0 3.4-1.5 3.4-3.3 0-1.9-1.5-3.4-3.4-3.3a3.4 3.4 0 0 0-3.4 3.3c0 1.8 1.5 3.3 3.4 3.3zm-16.3 0c1.9 0 3.4-1.5 3.4-3.3 0-1.9-1.5-3.4-3.4-3.3a3.4 3.4 0 0 0-3.4 3.3 3.5 3.5 0 0 0 3.4 3.3zm-3.4 29h6.8V12.3h-6.8v23.6zm-14.6-20v-3.6h-6.8v23.6h6.8V24.5c0-3.5 2.1-5.8 4.9-5.8 1.1 0 2 .3 2.7.7l1.8-6.8c-.7-.4-1.9-.7-3.1-.7-2.6-.1-4.8 1.5-6.3 4zm-30.2 5.6c.3-3 2.3-4.7 5.2-4.7 2.9 0 5 1.6 5.2 4.7h-10.4zm4.9-9.7c-7.6 0-12.3 5.4-12.3 12.4s4.5 12.3 12.7 12.3c4.9 0 8.4-1.6 11.5-4.5l-4.5-3.9a9 9 0 0 1-6.5 2.7c-3.3 0-5.7-1.9-5.9-5h17.1l.1-1.7c0-7.4-4.3-12.3-12.2-12.3zm-21.3 18.8c-1.5 0-2.4-.9-2.4-2.5V18h6.8v-5.1h-6.8V6.4h-6.8v6.4h-3.8V18h3.8v10c0 5.5 2.6 8.4 8.1 8.4 2.6 0 4.6-.6 6.7-2.3l-2.9-4.8c-.8.9-1.6 1.3-2.7 1.3zm-29.1.2c-3.5 0-5.4-2.8-5.4-6.7 0-3.9 1.9-6.7 5.4-6.7 3.5 0 5.4 2.8 5.4 6.7-.1 3.9-1.9 6.7-5.4 6.7zm0-19c-7.7 0-12.6 5-12.6 12.4 0 7.3 4.9 12.3 12.6 12.3 7.7 0 12.6-5 12.6-12.3 0-7.4-5-12.4-12.6-12.4zm-24.8 24.1h6.8V4.3h-6.8v31.6zm-16.8-14.7c-2.8-.4-4.6-.8-4.6-2.4 0-1.5 1.7-2.1 3.3-2.1 2.2 0 4.4.7 6.1 2.7l4.9-2.5c-2.3-3-5.8-5-10.8-5-5.6 0-10.1 2.4-10.1 7.4 0 5.4 4.7 6.5 9.6 7.2 3.2.5 5.1 1 5.1 2.7 0 1.5-1.7 2.4-3.9 2.4-3 0-5.1-.9-6.5-3.1l-5.5 2.1c2.2 4.1 6.3 5.9 11.6 5.9 7 0 10.9-3.2 10.9-7.8 0-4.9-3.5-6.6-10.1-7.5zm-22 9.4c-1.5 0-2.4-.9-2.4-2.5V18h6.8v-5.1H118V6.4h-6.8v6.4h-3.8V18h3.8v10c0 5.5 2.6 8.4 8.1 8.4 2.6 0 4.6-.6 6.7-2.3l-2.9-4.8c-.7.9-1.6 1.3-2.7 1.3zm-25.6-3.4c0 3-1.9 4.3-4.6 4.3-1.7 0-3.1-.8-3.1-2.7 0-2.1 1.6-2.7 3.4-2.9 2.1-.3 3.4-.4 4.3-1.5v2.8zm8.1 4.3c-.8 0-1.2-.4-1.2-1.5V20c0-5.9-4-8.2-10-8.2-3.5 0-7.6.8-10.4 2.6l2.3 5.1c2.2-1.4 5.1-2.2 7.4-2.2 1.8 0 3.8.4 3.8 2.3 0 2-2.3 2-5.8 2.5-3.7.5-8.6 1.2-8.6 7.1 0 4.7 3.5 7.3 8.1 7.3 2.9 0 5.9-.8 7.6-3.2.7 2.1 2.8 3 5.1 3 1.1 0 2.7-.2 3.6-.8l-.7-4.2-1.2.2zm-36.6-4.3c0 3-1.9 4.3-4.6 4.3-1.7 0-3.1-.8-3.1-2.7 0-2.1 1.6-2.7 3.4-2.9 2.1-.3 3.4-.4 4.3-1.5v2.8zm8.1 4.3c-.8 0-1.2-.4-1.2-1.5V20c0-5.9-4-8.2-10-8.2-3.5 0-7.6.8-10.4 2.6l2.3 5.1c2.2-1.4 5.1-2.2 7.4-2.2 1.8 0 3.8.4 3.8 2.3 0 2-2.3 2-5.8 2.5-3.7.5-8.6 1.2-8.6 7.1 0 4.7 3.5 7.3 8.1 7.3 2.9 0 5.9-.8 7.6-3.2.7 2.1 2.8 3 5.1 3 1.1 0 2.7-.2 3.6-.8l-.7-4.2-1.2.2zm-32-.9c-1.5 0-2.4-.9-2.4-2.5V18h6.8v-5.1H40V6.4h-6.8v6.4h-3.8V18h3.8v10c0 5.5 2.6 8.4 8.1 8.4 2.6 0 4.6-.6 6.7-2.3l-2.9-4.8c-.8.9-1.6 1.3-2.7 1.3zM14.1 17.8c-3.3-.6-5.5-1.2-5.5-3.3 0-1.9 2-2.7 4.4-2.7 2.8 0 5.1 1.2 6.4 3l5.5-3.1C22 7.5 17.9 5.9 13 5.9c-6.5 0-11.3 3.4-11.3 9.2 0 6.3 5.1 7.8 9.7 8.6 4.2.8 7.3 1.2 7.3 3.8 0 2-2.3 3.2-4.9 3.2A8.6 8.6 0 0 1 6 26.5l-6 2.6c2.5 4.5 6.6 7.3 13.2 7.3 7.8 0 12.4-4.3 12.4-9.6 0-5.9-4.6-7.8-11.5-9z" mask="url(#g)" fill="#fefefe"/>
  <path d="M128.6 108.8a4 4 0 0 1-4.1-3.6 4 4 0 0 1 3.6-4.1 3.8 3.8 0 0 1 4 3.6c.2 2.2-1.4 4-3.5 4.1m85.8-12c-2.2-1.1-10.4 12.8-13.8 14.8-1.7.7-3.5-.2-3.5-.2s-6.8-4.3-14.4-7.9c-7.6-3.6-18.3-8.1-18.3-8.1s.6-12.8-1.1-13.4c-1.7-.7-8 10.4-15.2 9.1a60.4 60.4 0 0 0-46.1 13.2s5.1 10.4 29.5 11.9c-8.9 4.4-20.8 8.4-29.6 12.4 12.3 10 30.5 9.6 47.3 9.5 3.8 3.8 6.6 5 9 6.1 2.4 1.2 4.3.8 5.1-.4 1.9-2.7-5.8-6.5-1.6-8.6.4 0 30.3-11.3 36.3-13.8 1.7-.5 2.3-.1 2.4 0 1 .3 10.8 15.9 13.6 14.3 2.8-1.6-2.2-9.9-2.1-19.2.1-9.5 4.7-18.5 2.5-19.7m-13.9 24.7c0 .1 0 .1 0 0" fill="#f60"/>
  <path d="M72.7 117.7a2.4 2.4 0 0 1-2.4-2.4c0-1.3 1.1-2.4 2.4-2.4 1.3 0 2.4 1.1 2.4 2.4 0 1.3-1.1 2.4-2.4 2.4m25.3-8.4a14.6 14.6 0 0 0-6.4 5.6 14.6 14.6 0 0 0-12.4-6.9c-5.7 0-10.9 3.3-13.2 8.5a14.5 14.5 0 0 0 25.6 1.6c1.5 2.5 3.8 4.4 6.4 5.6-1.3-2.2-2-4.7-2-7.2 0-2.6.7-5.1 2-7.2" fill="#003063"/>
</svg>
